<?xml version='1.0' encoding='utf-8'?>
<svg xmlns="http://www.w3.org/2000/svg" viewBox="0 0 400 400" id="atlas-avatar-default" data-viseme-bank="cartoon">
  
  <defs>
    <radialGradient id="face-grad" cx="50%" cy="45%" r="50%">
      <stop offset="0%" stop-color="#FFB347" />
      <stop offset="100%" stop-color="#FF8C00" />
    </radialGradient>
    
    <linearGradient id="tear-grad" x1="0" y1="0" x2="0" y2="1">
      <stop offset="0%" stop-color="#87CEFA" stop-opacity="0.8" />
      <stop offset="100%" stop-color="#4DA6FF" stop-opacity="0.6" />
    </linearGradient>
    
    <linearGradient id="heart-grad" x1="0" y1="0" x2="0" y2="1">
      <stop offset="0%" stop-color="#FF6B8A" />
      <stop offset="100%" stop-color="#E91E63" />
    </linearGradient>
    
    <radialGradient id="sparkle-grad" cx="50%" cy="50%" r="50%">
      <stop offset="0%" stop-color="#FFF176" />
      <stop offset="100%" stop-color="#FFD600" stop-opacity="0" />
    </radialGradient>
    
    <clipPath id="clip-teeth"><ellipse cx="200" cy="280" rx="40" ry="14" /></clipPath>
    <clipPath id="clip-open"><ellipse cx="200" cy="284" rx="40" ry="26" /></clipPath>
    <clipPath id="clip-fv"><ellipse cx="200" cy="278" rx="36" ry="10" /></clipPath>
  </defs>

  
  <g id="face-base">
    
    <circle cx="200" cy="200" r="160" fill="url(#face-grad)" stroke="#E07B00" stroke-width="3" />
    
    <circle cx="110" cy="230" r="30" fill="#FF6B35" opacity="0.25" />
    <circle cx="290" cy="230" r="30" fill="#FF6B35" opacity="0.25" />
  </g>

  
  <g id="eyes-base">
    
    <ellipse cx="145" cy="170" rx="32" ry="36" fill="white" />
    <circle cx="150" cy="175" r="16" fill="#2D2D2D" class="pupil-left" />
    <ellipse cx="255" cy="170" rx="32" ry="36" fill="white" />
    <circle cx="250" cy="175" r="16" fill="#2D2D2D" class="pupil-right" />
    </g>

  
  

  
  <g id="mouth-IDLE" style="display:none">
    <path d="M140 268 Q200 310 260 268" fill="none" stroke="#C0392B" stroke-width="6" stroke-linecap="round" />
  </g>

  
  <g id="mouth-IDLE-TALK" style="display:none">
    <path d="M160 272 Q200 296 240 272" fill="none" stroke="#C0392B" stroke-width="5" stroke-linecap="round" />
  </g>

  
  <g id="mouth-CLOSED" style="display:none">
    <path d="M155 278 Q200 282 245 278" fill="#C0392B" stroke="#A93226" stroke-width="4" stroke-linecap="round" />
  </g>

  
  <g id="mouth-OPEN" style="display:none">
    <ellipse cx="200" cy="284" rx="42" ry="28" fill="#8B1A1A" />
    <rect x="164" y="262" width="72" height="8" rx="3" fill="white" clip-path="url(#clip-open)" />
    <ellipse cx="200" cy="298" rx="22" ry="10" fill="#FF8A80" opacity="0.5" />
  </g>

  
  <g id="mouth-ROUND" style="display:none">
    <ellipse cx="200" cy="282" rx="22" ry="22" fill="#8B1A1A" />
    <ellipse cx="200" cy="281" rx="14" ry="14" fill="#C0392B" />
  </g>

  
  <g id="mouth-TEETH" style="display:none">
    <ellipse cx="200" cy="280" rx="42" ry="16" fill="#C0392B" />
    <rect x="168" y="274" width="64" height="8" rx="3" fill="white" clip-path="url(#clip-teeth)" />
  </g>

  
  <g id="mouth-FV" style="display:none">
    <path d="M160 274 Q200 270 240 274" fill="none" stroke="#C0392B" stroke-width="5" stroke-linecap="round" />
    <rect x="176" y="274" width="48" height="5" rx="2" fill="white" opacity="0.8" clip-path="url(#clip-fv)" />
    <path d="M172 280 Q200 290 228 280" fill="#E74C3C" opacity="0.5" />
  </g>

  
  
  <g id="mouth-PP" style="display:none"><use href="#mouth-CLOSED" /></g>
  <g id="mouth-FF" style="display:none"><use href="#mouth-FV" /></g>
  <g id="mouth-TH" style="display:none"><use href="#mouth-TEETH" /></g>
  <g id="mouth-DD" style="display:none"><use href="#mouth-CLOSED" /></g>
  <g id="mouth-KK" style="display:none"><use href="#mouth-OPEN" /></g>
  <g id="mouth-SS" style="display:none"><use href="#mouth-TEETH" /></g>
  <g id="mouth-SH" style="display:none"><use href="#mouth-ROUND" /></g>
  <g id="mouth-RR" style="display:none"><use href="#mouth-ROUND" /></g>
  <g id="mouth-NN" style="display:none"><use href="#mouth-CLOSED" /></g>
  <g id="mouth-IH" style="display:none"><use href="#mouth-TEETH" /></g>
  <g id="mouth-EH" style="display:none"><use href="#mouth-TEETH" /></g>
  <g id="mouth-AA" style="display:none"><use href="#mouth-OPEN" /></g>
  <g id="mouth-OH" style="display:none"><use href="#mouth-ROUND" /></g>
  <g id="mouth-OU" style="display:none"><use href="#mouth-ROUND" /></g>

  
  

  
  <g id="mouth-anchor" data-cx="200" data-cy="280" style="display:none" />
  <g id="eyes-anchor" data-cx="200" data-cy="172" style="display:none" />
  <g id="eyebrows-anchor" data-cx="200" data-cy="148" style="display:none" />

  
  <g id="expr-happy" style="display:none" data-replace-mouth="true" data-replace-eyes="true"><path fill="#111" stroke="#C0392B" stroke-width="4.5" stroke-linecap="round" d="M116 266 Q200 368.8 284 266 Z" /><ellipse cx="145" cy="170" rx="35.2" ry="21.6" fill="white" /><circle cx="150" cy="173" r="9.6" fill="#2D2D2D" /><ellipse cx="255" cy="170" rx="35.2" ry="21.6" fill="white" /><circle cx="250" cy="173" r="9.6" fill="#2D2D2D" /></g><g id="expr-sad" style="display:none" data-replace-mouth="true" data-replace-eyes="true"><path fill="none" stroke="#C0392B" stroke-width="6" stroke-linecap="round" d="M134 268 Q200 234.4 266 268" /><ellipse cx="145" cy="172" rx="35.2" ry="25.2" fill="white" /><circle cx="150" cy="175.5" r="11.2" fill="#2D2D2D" /><ellipse cx="255" cy="172" rx="35.2" ry="25.2" fill="white" /><circle cx="250" cy="175.5" r="11.2" fill="#2D2D2D" /></g><g id="expr-angry" style="display:none" data-replace-mouth="true" data-replace-eyes="true"><path fill="none" stroke="#C0392B" stroke-width="6" stroke-linecap="round" d="M140 268 Q200 251.2 260 268" /><ellipse cx="145" cy="170" rx="32" ry="18" fill="white" /><circle cx="150" cy="172.5" r="8" fill="#2D2D2D" /><ellipse cx="255" cy="170" rx="32" ry="18" fill="white" /><circle cx="250" cy="172.5" r="8" fill="#2D2D2D" /></g><g id="expr-surprised" style="display:none" data-replace-mouth="true" data-replace-eyes="true"><ellipse cx="200" cy="268" rx="18" ry="24" fill="#C0392B" opacity="0.85" /><ellipse cx="145" cy="170" rx="32" ry="54" fill="white" /><circle cx="150" cy="177.5" r="16" fill="#2D2D2D" /><ellipse cx="255" cy="170" rx="32" ry="54" fill="white" /><circle cx="250" cy="177.5" r="16" fill="#2D2D2D" /></g><g id="expr-thinking" style="display:none" data-replace-mouth="true" data-replace-eyes="true"><path fill="none" stroke="#C0392B" stroke-width="6" stroke-linecap="round" d="M197 270 Q209 264.2 230 268" /><ellipse cx="145" cy="165" rx="32" ry="39.6" fill="white" /><circle cx="150" cy="170.5" r="16" fill="#2D2D2D" /><ellipse cx="255" cy="165" rx="32" ry="39.6" fill="white" /><circle cx="250" cy="170.5" r="16" fill="#2D2D2D" /></g><g id="expr-confused" style="display:none" data-replace-mouth="true" data-replace-eyes="true"><path fill="none" stroke="#C0392B" stroke-width="6" stroke-linecap="round" d="M158 268 Q183.2 257.9 200 268 Q216.8 278.1 242 268" /><ellipse cx="145" cy="170" rx="32" ry="43.2" fill="white" /><circle cx="150" cy="176" r="16" fill="#2D2D2D" /><ellipse cx="255" cy="170" rx="28.8" ry="25.2" fill="white" /><circle cx="250" cy="173.5" r="11.2" fill="#2D2D2D" /><text x="315" y="120" font-size="36" font-family="sans-serif" font-weight="bold" fill="#666" opacity="0.7" style="animation: wobble 1.2s ease-in-out infinite">?</text></g><g id="expr-excited" style="display:none" data-replace-mouth="true" data-replace-eyes="true"><path fill="#111" stroke="#C0392B" stroke-width="4.5" stroke-linecap="round" d="M110 266 Q200 381.4 290 266 Z" /><ellipse cx="145" cy="170" rx="32" ry="50.4" fill="white" /><circle cx="150" cy="177" r="16" fill="#2D2D2D" /><ellipse cx="255" cy="170" rx="32" ry="50.4" fill="white" /><circle cx="250" cy="177" r="16" fill="#2D2D2D" /><path d="M150 130 L153 137 L160 140 L153 143 L150 150 L147 143 L140 140 L147 137 Z" fill="#FFD600" opacity="0.9" /><path d="M250 127 L252.4 132.6 L258 135 L252.4 137.4 L250 143 L247.6 137.4 L242 135 L247.6 132.6 Z" fill="#FFD600" opacity="0.7" /></g><g id="expr-scared" style="display:none" data-replace-mouth="true" data-replace-eyes="true"><path fill="#C0392B" stroke="#C0392B" stroke-width="6" stroke-linecap="round" opacity="0.65" d="M156.8 280.6 Q200 226 243.2 280.6 Q200 301.6 156.8 280.6 Z" /><ellipse cx="145" cy="170" rx="32" ry="57.6" fill="white" /><circle cx="150" cy="178" r="16" fill="#2D2D2D" /><ellipse cx="255" cy="170" rx="32" ry="57.6" fill="white" /><circle cx="250" cy="178" r="16" fill="#2D2D2D" /></g><g id="expr-concerned" style="display:none" data-replace-mouth="true" data-replace-eyes="true"><path fill="none" stroke="#C0392B" stroke-width="6" stroke-linecap="round" d="M146 268 Q200 247 254 268" /><ellipse cx="145" cy="170" rx="32" ry="41.4" fill="white" /><circle cx="150" cy="175.8" r="16" fill="#2D2D2D" /><ellipse cx="255" cy="170" rx="32" ry="41.4" fill="white" /><circle cx="250" cy="175.8" r="16" fill="#2D2D2D" /></g><g id="expr-proud" style="display:none" data-replace-mouth="true" data-replace-eyes="true"><path fill="none" stroke="#C0392B" stroke-width="6" stroke-linecap="round" d="M134 268 Q200 310 266 268" /><ellipse cx="145" cy="170" rx="35.2" ry="28.8" fill="white" /><circle cx="150" cy="174" r="12.8" fill="#2D2D2D" /><ellipse cx="255" cy="170" rx="35.2" ry="28.8" fill="white" /><circle cx="250" cy="174" r="12.8" fill="#2D2D2D" /></g><g id="expr-love" style="display:none" data-replace-mouth="true" data-replace-eyes="true"><path fill="none" stroke="#C0392B" stroke-width="6" stroke-linecap="round" d="M152 268 Q200 293.2 248 268" /><ellipse cx="145" cy="170" rx="35.2" ry="36" fill="white" /><path d="M150 180.1 C137.2 172.4 143.6 163.5 150 169.9 C156.4 163.5 162.8 172.4 150 180.1 Z" fill="#E74C3C" opacity="0.9" /><ellipse cx="255" cy="170" rx="35.2" ry="36" fill="white" /><path d="M250 180.1 C237.2 172.4 243.6 163.5 250 169.9 C256.4 163.5 262.8 172.4 250 180.1 Z" fill="#E74C3C" opacity="0.9" /><path d="M155 149.2 C155 140.8 141 140.8 141 146.4 C141 153.4 155 159 155 159 C155 159 169 153.4 169 146.4 C169 140.8 155 140.8 155 149.2 Z" fill="#E74C3C" opacity="0.9" /><path d="M245 143.6 C245 136.4 233 136.4 233 141.2 C233 147.2 245 152 245 152 C245 152 257 147.2 257 141.2 C257 136.4 245 136.4 245 143.6 Z" fill="#E74C3C" opacity="0.7" /></g><g id="expr-crying" style="display:none" data-replace-mouth="true" data-replace-eyes="true"><path fill="#C0392B" stroke="#C0392B" stroke-width="6" stroke-linecap="round" opacity="0.65" d="M147.2 279.3 Q200 230.2 252.8 279.3 Q200 298.2 147.2 279.3 Z" /><ellipse cx="145" cy="170" rx="35.2" ry="18" fill="white" /><circle cx="150" cy="172.5" r="8" fill="#2D2D2D" /><ellipse cx="255" cy="170" rx="35.2" ry="18" fill="white" /><circle cx="250" cy="172.5" r="8" fill="#2D2D2D" /><ellipse cx="121" cy="226" rx="7" ry="20" fill="#5DADE2" opacity="0.5" style="animation: tear-stream 1.5s ease-in-out 0s infinite" /><ellipse cx="279" cy="226" rx="7" ry="20" fill="#5DADE2" opacity="0.5" style="animation: tear-stream 1.5s ease-in-out 0.3s infinite" /></g><g id="expr-sleepy" style="display:none" data-replace-mouth="true" data-replace-eyes="true"><ellipse cx="200" cy="268" rx="9" ry="7.2" fill="#C0392B" opacity="0.5" /><path d="M113 170 Q145 158.8 177 170" fill="none" stroke="#2D2D2D" stroke-width="4" stroke-linecap="round" /><path d="M223 170 Q255 158.8 287 170" fill="none" stroke="#2D2D2D" stroke-width="4" stroke-linecap="round" /><text x="330" y="115" font-size="32" font-family="sans-serif" font-weight="bold" fill="#999" opacity="0.7" style="animation: float-up 1.5s ease-in-out infinite">z</text><text x="349.2" y="86.2" font-size="22.4" font-family="sans-serif" font-weight="bold" fill="#999" opacity="0.7" style="animation: float-up 1.8s ease-in-out infinite">z</text><text x="368.4" y="57.4" font-size="14.4" font-family="sans-serif" font-weight="bold" fill="#999" opacity="0.7" style="animation: float-up 2.1s ease-in-out infinite">z</text></g><g id="expr-winking" style="display:none" data-replace-mouth="true" data-replace-eyes="true"><path fill="#111" stroke="#C0392B" stroke-width="4.5" stroke-linecap="round" d="M122 266 Q200 356.2 278 266 Z" /><path d="M113 170 Q145 158.8 177 170" fill="none" stroke="#2D2D2D" stroke-width="4" stroke-linecap="round" /><ellipse cx="255" cy="170" rx="32" ry="36" fill="white" /><circle cx="250" cy="175" r="16" fill="#2D2D2D" /></g><g id="expr-laughing" style="display:none" data-replace-mouth="true" data-replace-eyes="true"><path fill="#111" stroke="#C0392B" stroke-width="4.5" stroke-linecap="round" d="M98 266 Q200 331 302 266 Z" /><path d="M113 170 Q145 158.8 177 170" fill="none" stroke="#2D2D2D" stroke-width="4" stroke-linecap="round" /><path d="M223 170 Q255 158.8 287 170" fill="none" stroke="#2D2D2D" stroke-width="4" stroke-linecap="round" /></g><g id="expr-silly" style="display:none" data-replace-mouth="true" data-replace-eyes="true"><path fill="none" stroke="#C0392B" stroke-width="6" stroke-linecap="round" d="M128 268 Q200 289 272 268" /><ellipse cx="145" cy="170" rx="33.6" ry="54" fill="white" /><circle cx="150" cy="177.5" r="16.8" fill="#2D2D2D" /><ellipse cx="255" cy="170" rx="27.2" ry="14.4" fill="white" /><circle cx="250" cy="172" r="6.4" fill="#2D2D2D" /><ellipse cx="200" cy="286" rx="12" ry="9" fill="#E74C6F" /></g><g id="expr-rofl" style="display:none" data-replace-mouth="true" data-replace-eyes="true"><path fill="#111" stroke="#C0392B" stroke-width="4.5" stroke-linecap="round" d="M92 266 Q200 337.3 308 266 Z" /><path d="M113 170 Q145 158.8 177 170" fill="none" stroke="#2D2D2D" stroke-width="4" stroke-linecap="round" /><path d="M223 170 Q255 158.8 287 170" fill="none" stroke="#2D2D2D" stroke-width="4" stroke-linecap="round" /><ellipse cx="121" cy="226" rx="7" ry="20" fill="#5DADE2" opacity="0.5" style="animation: tear-stream 1.5s ease-in-out 0s infinite" /><ellipse cx="279" cy="226" rx="7" ry="20" fill="#5DADE2" opacity="0.5" style="animation: tear-stream 1.5s ease-in-out 0.3s infinite" /></g><g id="blink" style="display:none">
    <path d="M113 175 Q145 185 177 175" fill="#FF8C00" stroke="#E07B00" stroke-width="3" stroke-linecap="round" />
    <path d="M223 175 Q255 185 287 175" fill="#FF8C00" stroke="#E07B00" stroke-width="3" stroke-linecap="round" />
  </g>
<g id="eyebrows-base"><path d="M116.2 126 Q145 118.8 173.8 126" fill="none" stroke="#C0392B" stroke-width="3.9" stroke-linecap="round" /><path d="M226.2 126 Q255 118.8 283.8 126" fill="none" stroke="#C0392B" stroke-width="3.9" stroke-linecap="round" /></g><g id="expr-listening" style="display:none" /><g id="expr-neutral" style="display:none" /></svg>