<?xml version='1.0' encoding='utf-8'?>
<svg xmlns="http://www.w3.org/2000/svg" viewBox="0 0 400 400" id="atlas-avatar-default" data-viseme-bank="cartoon">
  
  <defs>
    <radialGradient id="face-grad" cx="50%" cy="45%" r="50%">
      <stop offset="0%" stop-color="#FFB347" />
      <stop offset="100%" stop-color="#FF8C00" />
    </radialGradient>
    
    <linearGradient id="tear-grad" x1="0" y1="0" x2="0" y2="1">
      <stop offset="0%" stop-color="#87CEFA" stop-opacity="0.8" />
      <stop offset="100%" stop-color="#4DA6FF" stop-opacity="0.6" />
    </linearGradient>
    
    <linearGradient id="heart-grad" x1="0" y1="0" x2="0" y2="1">
      <stop offset="0%" stop-color="#FF6B8A" />
      <stop offset="100%" stop-color="#E91E63" />
    </linearGradient>
    
    <radialGradient id="sparkle-grad" cx="50%" cy="50%" r="50%">
      <stop offset="0%" stop-color="#FFF176" />
      <stop offset="100%" stop-color="#FFD600" stop-opacity="0" />
    </radialGradient>
    
    <clipPath id="clip-teeth"><ellipse cx="200" cy="280" rx="40" ry="14" /></clipPath>
    <clipPath id="clip-open"><ellipse cx="200" cy="284" rx="40" ry="26" /></clipPath>
    <clipPath id="clip-fv"><ellipse cx="200" cy="278" rx="36" ry="10" /></clipPath>
  </defs>

  
  <g id="face-base">
    
    <circle cx="200" cy="200" r="160" fill="url(#face-grad)" stroke="#E07B00" stroke-width="3" />
    
    <circle cx="110" cy="230" r="30" fill="#FF6B35" opacity="0.25" />
    <circle cx="290" cy="230" r="30" fill="#FF6B35" opacity="0.25" />
  </g>

  
  <g id="eyes-base">
    
    <ellipse cx="145" cy="170" rx="32" ry="36" fill="white" />
    <circle cx="150" cy="175" r="16" fill="#2D2D2D" class="pupil-left" />
    <circle cx="156" cy="166" r="6" fill="white" class="glint" />
    
    <ellipse cx="255" cy="170" rx="32" ry="36" fill="white" />
    <circle cx="250" cy="175" r="16" fill="#2D2D2D" class="pupil-right" />
    <circle cx="244" cy="166" r="6" fill="white" class="glint" />
  </g>

  
  

  
  <g id="mouth-IDLE" style="display:none">
    <path d="M140 268 Q200 310 260 268" fill="none" stroke="#C0392B" stroke-width="6" stroke-linecap="round" />
  </g>

  
  <g id="mouth-IDLE-TALK" style="display:none">
    <path d="M160 272 Q200 296 240 272" fill="none" stroke="#C0392B" stroke-width="5" stroke-linecap="round" />
  </g>

  
  <g id="mouth-CLOSED" style="display:none">
    <path d="M155 278 Q200 282 245 278" fill="#C0392B" stroke="#A93226" stroke-width="4" stroke-linecap="round" />
  </g>

  
  <g id="mouth-OPEN" style="display:none">
    <ellipse cx="200" cy="284" rx="42" ry="28" fill="#8B1A1A" />
    <rect x="164" y="262" width="72" height="8" rx="3" fill="white" clip-path="url(#clip-open)" />
    <ellipse cx="200" cy="298" rx="22" ry="10" fill="#FF8A80" opacity="0.5" />
  </g>

  
  <g id="mouth-ROUND" style="display:none">
    <ellipse cx="200" cy="282" rx="22" ry="22" fill="#8B1A1A" />
    <ellipse cx="200" cy="281" rx="14" ry="14" fill="#C0392B" />
  </g>

  
  <g id="mouth-TEETH" style="display:none">
    <ellipse cx="200" cy="280" rx="42" ry="16" fill="#C0392B" />
    <rect x="168" y="274" width="64" height="8" rx="3" fill="white" clip-path="url(#clip-teeth)" />
  </g>

  
  <g id="mouth-FV" style="display:none">
    <path d="M160 274 Q200 270 240 274" fill="none" stroke="#C0392B" stroke-width="5" stroke-linecap="round" />
    <rect x="176" y="274" width="48" height="5" rx="2" fill="white" opacity="0.8" clip-path="url(#clip-fv)" />
    <path d="M172 280 Q200 290 228 280" fill="#E74C3C" opacity="0.5" />
  </g>

  
  
  <g id="mouth-PP" style="display:none"><use href="#mouth-CLOSED" /></g>
  <g id="mouth-FF" style="display:none"><use href="#mouth-FV" /></g>
  <g id="mouth-TH" style="display:none"><use href="#mouth-TEETH" /></g>
  <g id="mouth-DD" style="display:none"><use href="#mouth-CLOSED" /></g>
  <g id="mouth-KK" style="display:none"><use href="#mouth-OPEN" /></g>
  <g id="mouth-SS" style="display:none"><use href="#mouth-TEETH" /></g>
  <g id="mouth-SH" style="display:none"><use href="#mouth-ROUND" /></g>
  <g id="mouth-RR" style="display:none"><use href="#mouth-ROUND" /></g>
  <g id="mouth-NN" style="display:none"><use href="#mouth-CLOSED" /></g>
  <g id="mouth-IH" style="display:none"><use href="#mouth-TEETH" /></g>
  <g id="mouth-EH" style="display:none"><use href="#mouth-TEETH" /></g>
  <g id="mouth-AA" style="display:none"><use href="#mouth-OPEN" /></g>
  <g id="mouth-OH" style="display:none"><use href="#mouth-ROUND" /></g>
  <g id="mouth-OU" style="display:none"><use href="#mouth-ROUND" /></g>

  
  

  
  <g id="mouth-anchor" data-cx="200" data-cy="280" style="display:none" />
  <g id="eyes-anchor" data-cx="200" data-cy="172" style="display:none" />
  <g id="eyebrows-anchor" data-cx="200" data-cy="148" style="display:none" />

  
  <g id="expr-happy" style="display:none" data-replace-mouth="true" data-replace-eyes="true"><path fill="none" stroke="#C0392B" stroke-width="6" stroke-linecap="round" d="M140 268 Q200 293.2 260 268" /><ellipse cx="145" cy="170" rx="32" ry="18" fill="white" /><ellipse cx="255" cy="170" rx="32" ry="18" fill="white" /><path d="M116.2 123 Q145 105.7 173.8 123" fill="none" stroke="#C0392B" stroke-width="3.9" stroke-linecap="round" /><path d="M226.2 123 Q255 105.7 283.8 123" fill="none" stroke="#C0392B" stroke-width="3.9" stroke-linecap="round" /></g><g id="expr-sad" style="display:none" data-replace-mouth="true" data-replace-eyes="true"><path fill="none" stroke="#C0392B" stroke-width="6" stroke-linecap="round" d="M152 268 Q200 257.5 248 268" /><ellipse cx="145" cy="172" rx="32" ry="19.8" fill="white" /><ellipse cx="255" cy="172" rx="32" ry="19.8" fill="white" /><path d="M116.2 131 Q145 120 173.8 128" fill="none" stroke="#C0392B" stroke-width="3.9" stroke-linecap="round" /><path d="M226.2 128 Q255 120 283.8 131" fill="none" stroke="#C0392B" stroke-width="3.9" stroke-linecap="round" /></g><g id="expr-angry" style="display:none" data-replace-mouth="true" data-replace-eyes="true"><path fill="none" stroke="#C0392B" stroke-width="6" stroke-linecap="round" d="M164 268 Q200 259.6 236 268" /><ellipse cx="145" cy="170" rx="30.4" ry="12.6" fill="white" /><ellipse cx="255" cy="170" rx="30.4" ry="12.6" fill="white" /><path d="M116.2 124 Q145 118 173.8 130" fill="none" stroke="#C0392B" stroke-width="4.4" stroke-linecap="round" /><path d="M226.2 130 Q255 118 283.8 124" fill="none" stroke="#C0392B" stroke-width="4.4" stroke-linecap="round" /></g><g id="expr-surprised" style="display:none" data-replace-mouth="true" data-replace-eyes="true"><ellipse cx="200" cy="268" rx="12" ry="15" fill="#C0392B" opacity="0.85" /><ellipse cx="145" cy="170" rx="32" ry="46.8" fill="white" /><ellipse cx="255" cy="170" rx="32" ry="46.8" fill="white" /><path d="M116.2 116 Q145 101.6 173.8 116" fill="none" stroke="#C0392B" stroke-width="3.9" stroke-linecap="round" /><path d="M226.2 116 Q255 101.6 283.8 116" fill="none" stroke="#C0392B" stroke-width="3.9" stroke-linecap="round" /></g><g id="expr-thinking" style="display:none" data-replace-mouth="true" data-replace-eyes="true"><path fill="none" stroke="#C0392B" stroke-width="6" stroke-linecap="round" d="M194 270 Q206 264.2 227 268" /><ellipse cx="145" cy="167" rx="32" ry="30.6" fill="white" /><ellipse cx="255" cy="167" rx="32" ry="30.6" fill="white" /><path d="M116.2 128 Q145 119.4 173.8 128" fill="none" stroke="#C0392B" stroke-width="3.9" stroke-linecap="round" /><path d="M226.2 128 Q255 112.4 283.8 126" fill="none" stroke="#C0392B" stroke-width="3.9" stroke-linecap="round" /></g><g id="expr-confused" style="display:none" data-replace-mouth="true" data-replace-eyes="true"><path fill="none" stroke="#C0392B" stroke-width="6" stroke-linecap="round" d="M158 268 Q183.2 260.4 200 268 Q216.8 275.6 242 268" /><ellipse cx="145" cy="170" rx="32" ry="32.4" fill="white" /><ellipse cx="255" cy="170" rx="28.8" ry="25.2" fill="white" /><path d="M116.2 128 Q145 119.4 173.8 128" fill="none" stroke="#C0392B" stroke-width="3.9" stroke-linecap="round" /><path d="M226.2 128 Q255 112.4 283.8 126" fill="none" stroke="#C0392B" stroke-width="3.9" stroke-linecap="round" /></g><g id="expr-excited" style="display:none" data-replace-mouth="true" data-replace-eyes="true"><path fill="#fff" stroke="#C0392B" stroke-width="4.5" stroke-linecap="round" d="M128 266 Q200 299.5 272 266 Z" /><ellipse cx="145" cy="170" rx="32" ry="43.2" fill="white" /><ellipse cx="255" cy="170" rx="32" ry="43.2" fill="white" /><path d="M116.2 118 Q145 103.6 173.8 118" fill="none" stroke="#C0392B" stroke-width="3.9" stroke-linecap="round" /><path d="M226.2 118 Q255 103.6 283.8 118" fill="none" stroke="#C0392B" stroke-width="3.9" stroke-linecap="round" /></g><g id="expr-scared" style="display:none" data-replace-mouth="true" data-replace-eyes="true"><path fill="#C0392B" stroke="#C0392B" stroke-width="6" stroke-linecap="round" opacity="0.65" d="M166.4 273 Q200 251.2 233.6 273 Q200 281.4 166.4 273 Z" /><ellipse cx="145" cy="170" rx="32" ry="50.4" fill="white" /><ellipse cx="255" cy="170" rx="32" ry="50.4" fill="white" /><path d="M116.2 113 Q145 98.6 173.8 113" fill="none" stroke="#C0392B" stroke-width="3.9" stroke-linecap="round" /><path d="M226.2 113 Q255 98.6 283.8 113" fill="none" stroke="#C0392B" stroke-width="3.9" stroke-linecap="round" /></g><g id="expr-concerned" style="display:none" data-replace-mouth="true" data-replace-eyes="true"><path fill="none" stroke="#C0392B" stroke-width="6" stroke-linecap="round" d="M158 268 Q200 261.7 242 268" /><ellipse cx="145" cy="170" rx="32" ry="37.8" fill="white" /><ellipse cx="255" cy="170" rx="32" ry="37.8" fill="white" /><path d="M116.2 128 Q145 124 173.8 130" fill="none" stroke="#C0392B" stroke-width="3.9" stroke-linecap="round" /><path d="M226.2 130 Q255 124 283.8 128" fill="none" stroke="#C0392B" stroke-width="3.9" stroke-linecap="round" /></g><g id="expr-proud" style="display:none" data-replace-mouth="true" data-replace-eyes="true"><path fill="none" stroke="#C0392B" stroke-width="6" stroke-linecap="round" d="M146 270 Q200 268 254 261.7" /><ellipse cx="145" cy="170" rx="32" ry="25.2" fill="white" /><ellipse cx="255" cy="170" rx="32" ry="25.2" fill="white" /><path d="M116.2 128 Q145 122.2 173.8 128" fill="none" stroke="#C0392B" stroke-width="3.9" stroke-linecap="round" /><path d="M226.2 128 Q255 112.2 283.8 126" fill="none" stroke="#C0392B" stroke-width="3.9" stroke-linecap="round" /></g><g id="expr-love" style="display:none" data-replace-mouth="true" data-replace-eyes="true"><ellipse cx="200" cy="268" rx="7.8" ry="9.6" fill="#e74c6f" opacity="0.8" /><ellipse cx="145" cy="171" rx="32" ry="21.6" fill="white" /><ellipse cx="255" cy="171" rx="32" ry="21.6" fill="white" /><path d="M116.2 128 Q145 120.8 173.8 128" fill="none" stroke="#C0392B" stroke-width="3.9" stroke-linecap="round" /><path d="M226.2 128 Q255 120.8 283.8 128" fill="none" stroke="#C0392B" stroke-width="3.9" stroke-linecap="round" /></g><g id="expr-crying" style="display:none" data-replace-mouth="true" data-replace-eyes="true"><path fill="#C0392B" stroke="#C0392B" stroke-width="6" stroke-linecap="round" opacity="0.65" d="M161.6 273.7 Q200 249.1 238.4 273.7 Q200 283.1 161.6 273.7 Z" /><ellipse cx="145" cy="170" rx="32" ry="10.8" fill="white" /><ellipse cx="255" cy="170" rx="32" ry="10.8" fill="white" /><path d="M116.2 132 Q145 122 173.8 128" fill="none" stroke="#C0392B" stroke-width="3.9" stroke-linecap="round" /><path d="M226.2 128 Q255 122 283.8 132" fill="none" stroke="#C0392B" stroke-width="3.9" stroke-linecap="round" /></g><g id="expr-sleepy" style="display:none" data-replace-mouth="true" data-replace-eyes="true"><ellipse cx="200" cy="268" rx="7.8" ry="6" fill="#C0392B" opacity="0.5" /><ellipse cx="145" cy="172" rx="32" ry="5.4" fill="white" /><ellipse cx="255" cy="172" rx="32" ry="5.4" fill="white" /><path d="M116.2 130 Q145 126.5 173.8 130" fill="none" stroke="#C0392B" stroke-width="3.9" stroke-linecap="round" /><path d="M226.2 130 Q255 126.5 283.8 130" fill="none" stroke="#C0392B" stroke-width="3.9" stroke-linecap="round" /></g><g id="expr-winking" style="display:none" data-replace-mouth="true" data-replace-eyes="true"><path fill="none" stroke="#C0392B" stroke-width="6" stroke-linecap="round" d="M140 268 Q200 289 260 268" /><path d="M113 170 Q145 158.8 177 170" fill="none" stroke="white" stroke-width="4" stroke-linecap="round" /><ellipse cx="255" cy="170" rx="32" ry="36" fill="white" /><path d="M116.2 128 Q145 119.4 173.8 128" fill="none" stroke="#C0392B" stroke-width="3.9" stroke-linecap="round" /><path d="M226.2 128 Q255 112.4 283.8 126" fill="none" stroke="#C0392B" stroke-width="3.9" stroke-linecap="round" /></g><g id="expr-laughing" style="display:none" data-replace-mouth="true" data-replace-eyes="true"><path fill="#fff" stroke="#C0392B" stroke-width="4.5" stroke-linecap="round" d="M122 266 Q200 305.8 278 266 Z" /><path d="M113 170 Q145 158.8 177 170" fill="none" stroke="white" stroke-width="4" stroke-linecap="round" /><path d="M223 170 Q255 158.8 287 170" fill="none" stroke="white" stroke-width="4" stroke-linecap="round" /><path d="M116.2 122 Q145 101.3 173.8 122" fill="none" stroke="#C0392B" stroke-width="3.9" stroke-linecap="round" /><path d="M226.2 122 Q255 101.3 283.8 122" fill="none" stroke="#C0392B" stroke-width="3.9" stroke-linecap="round" /></g><g id="expr-silly" style="display:none" data-replace-mouth="true" data-replace-eyes="true"><path fill="none" stroke="#C0392B" stroke-width="6" stroke-linecap="round" d="M140 268 Q176 259.2 200 268 Q224 276.8 260 268" /><ellipse cx="145" cy="170" rx="33.6" ry="43.2" fill="white" /><ellipse cx="255" cy="170" rx="27.2" ry="23.4" fill="white" /><path d="M116.2 128 Q130.6 120.8 145 128 Q159.4 131.6 173.8 126" fill="none" stroke="#C0392B" stroke-width="3.9" stroke-linecap="round" /><path d="M226.2 129 Q240.6 123.7 255 128 Q269.4 130.2 283.8 128" fill="none" stroke="#C0392B" stroke-width="3.9" stroke-linecap="round" /></g><g id="blink" style="display:none">
    <path d="M113 175 Q145 185 177 175" fill="#FF8C00" stroke="#E07B00" stroke-width="3" stroke-linecap="round" />
    <path d="M223 175 Q255 185 287 175" fill="#FF8C00" stroke="#E07B00" stroke-width="3" stroke-linecap="round" />
  </g>
<g id="expr-listening" style="display:none" /><g id="expr-neutral" style="display:none" /></svg>