<?xml version='1.0' encoding='utf-8'?>
<svg xmlns="http://www.w3.org/2000/svg" viewBox="0 0 400 400" id="atlas-avatar-default" data-viseme-bank="cartoon">
  
  <defs>
    <radialGradient id="face-grad" cx="50%" cy="45%" r="50%">
      <stop offset="0%" stop-color="#FFB347" />
      <stop offset="100%" stop-color="#FF8C00" />
    </radialGradient>
    
    <linearGradient id="tear-grad" x1="0" y1="0" x2="0" y2="1">
      <stop offset="0%" stop-color="#87CEFA" stop-opacity="0.8" />
      <stop offset="100%" stop-color="#4DA6FF" stop-opacity="0.6" />
    </linearGradient>
    
    <linearGradient id="heart-grad" x1="0" y1="0" x2="0" y2="1">
      <stop offset="0%" stop-color="#FF6B8A" />
      <stop offset="100%" stop-color="#E91E63" />
    </linearGradient>
    
    <radialGradient id="sparkle-grad" cx="50%" cy="50%" r="50%">
      <stop offset="0%" stop-color="#FFF176" />
      <stop offset="100%" stop-color="#FFD600" stop-opacity="0" />
    </radialGradient>
    
    <clipPath id="clip-teeth"><ellipse cx="200" cy="280" rx="40" ry="14" /></clipPath>
    <clipPath id="clip-open"><ellipse cx="200" cy="284" rx="40" ry="26" /></clipPath>
    <clipPath id="clip-fv"><ellipse cx="200" cy="278" rx="36" ry="10" /></clipPath>
  </defs>

  
  <g id="face-base">
    
    <circle cx="200" cy="200" r="160" fill="url(#face-grad)" stroke="#E07B00" stroke-width="3" />
    
    <circle cx="110" cy="230" r="30" fill="#FF6B35" opacity="0.25" />
    <circle cx="290" cy="230" r="30" fill="#FF6B35" opacity="0.25" />
  </g>

  
  <g id="eyes-base">
    
    <ellipse cx="145" cy="170" rx="32" ry="36" fill="white" />
    <circle cx="150" cy="175" r="16" fill="#2D2D2D" class="pupil-left" />
    <ellipse cx="255" cy="170" rx="32" ry="36" fill="white" />
    <circle cx="250" cy="175" r="16" fill="#2D2D2D" class="pupil-right" />
    </g>

  
  

  
  <g id="mouth-IDLE" style="display:none">
    <path d="M140 268 Q200 310 260 268" fill="none" stroke="#C0392B" stroke-width="6" stroke-linecap="round" />
  </g>

  
  <g id="mouth-IDLE-TALK" style="display:none">
    <path d="M160 272 Q200 296 240 272" fill="none" stroke="#C0392B" stroke-width="5" stroke-linecap="round" />
  </g>

  
  <g id="mouth-CLOSED" style="display:none">
    <path d="M155 278 Q200 282 245 278" fill="#C0392B" stroke="#A93226" stroke-width="4" stroke-linecap="round" />
  </g>

  
  <g id="mouth-OPEN" style="display:none">
    <ellipse cx="200" cy="284" rx="42" ry="28" fill="#8B1A1A" />
    <rect x="164" y="262" width="72" height="8" rx="3" fill="white" clip-path="url(#clip-open)" />
    <ellipse cx="200" cy="298" rx="22" ry="10" fill="#FF8A80" opacity="0.5" />
  </g>

  
  <g id="mouth-ROUND" style="display:none">
    <ellipse cx="200" cy="282" rx="22" ry="22" fill="#8B1A1A" />
    <ellipse cx="200" cy="281" rx="14" ry="14" fill="#C0392B" />
  </g>

  
  <g id="mouth-TEETH" style="display:none">
    <ellipse cx="200" cy="280" rx="42" ry="16" fill="#C0392B" />
    <rect x="168" y="274" width="64" height="8" rx="3" fill="white" clip-path="url(#clip-teeth)" />
  </g>

  
  <g id="mouth-FV" style="display:none">
    <path d="M160 274 Q200 270 240 274" fill="none" stroke="#C0392B" stroke-width="5" stroke-linecap="round" />
    <rect x="176" y="274" width="48" height="5" rx="2" fill="white" opacity="0.8" clip-path="url(#clip-fv)" />
    <path d="M172 280 Q200 290 228 280" fill="#E74C3C" opacity="0.5" />
  </g>

  
  
  <g id="mouth-PP" style="display:none"><use href="#mouth-CLOSED" /></g>
  <g id="mouth-FF" style="display:none"><use href="#mouth-FV" /></g>
  <g id="mouth-TH" style="display:none"><use href="#mouth-TEETH" /></g>
  <g id="mouth-DD" style="display:none"><use href="#mouth-CLOSED" /></g>
  <g id="mouth-KK" style="display:none"><use href="#mouth-OPEN" /></g>
  <g id="mouth-SS" style="display:none"><use href="#mouth-TEETH" /></g>
  <g id="mouth-SH" style="display:none"><use href="#mouth-ROUND" /></g>
  <g id="mouth-RR" style="display:none"><use href="#mouth-ROUND" /></g>
  <g id="mouth-NN" style="display:none"><use href="#mouth-CLOSED" /></g>
  <g id="mouth-IH" style="display:none"><use href="#mouth-TEETH" /></g>
  <g id="mouth-EH" style="display:none"><use href="#mouth-TEETH" /></g>
  <g id="mouth-AA" style="display:none"><use href="#mouth-OPEN" /></g>
  <g id="mouth-OH" style="display:none"><use href="#mouth-ROUND" /></g>
  <g id="mouth-OU" style="display:none"><use href="#mouth-ROUND" /></g>

  
  

  
  <g id="mouth-anchor" data-cx="200" data-cy="280" style="display:none" />
  <g id="eyes-anchor" data-cx="200" data-cy="172" style="display:none" />
  <g id="eyebrows-anchor" data-cx="200" data-cy="148" style="display:none" />

  
  <g id="expr-happy" style="display:none" data-replace-mouth="true" data-replace-eyes="true"><path fill="none" stroke="#C0392B" stroke-width="6" stroke-linecap="round" d="M140 268 Q200 322.6 260 268" /><ellipse cx="145" cy="170" rx="30.4" ry="27" fill="white" /><circle cx="150" cy="173.8" r="12" fill="#2D2D2D" /><ellipse cx="255" cy="170" rx="30.4" ry="27" fill="white" /><circle cx="250" cy="173.8" r="12" fill="#2D2D2D" /><path d="M116.2 123 Q145 105.7 173.8 123" fill="none" stroke="#C0392B" stroke-width="3.9" stroke-linecap="round" /><path d="M226.2 123 Q255 105.7 283.8 123" fill="none" stroke="#C0392B" stroke-width="3.9" stroke-linecap="round" /></g><g id="expr-sad" style="display:none" data-replace-mouth="true" data-replace-eyes="true"><path fill="none" stroke="#C0392B" stroke-width="6" stroke-linecap="round" d="M152 268 Q200 242.8 248 268" /><ellipse cx="145" cy="172" rx="30.4" ry="27" fill="white" /><circle cx="150" cy="175.8" r="12" fill="#2D2D2D" /><ellipse cx="255" cy="172" rx="30.4" ry="27" fill="white" /><circle cx="250" cy="175.8" r="12" fill="#2D2D2D" /><path d="M116.2 131 Q145 120 173.8 128" fill="none" stroke="#C0392B" stroke-width="3.9" stroke-linecap="round" /><path d="M226.2 128 Q255 120 283.8 131" fill="none" stroke="#C0392B" stroke-width="3.9" stroke-linecap="round" /></g><g id="expr-angry" style="display:none" data-replace-mouth="true" data-replace-eyes="true"><path fill="none" stroke="#C0392B" stroke-width="6" stroke-linecap="round" d="M158 268 Q200 255.4 242 268" /><ellipse cx="145" cy="170" rx="22.4" ry="21.6" fill="white" /><circle cx="150" cy="173" r="9.6" fill="#2D2D2D" /><ellipse cx="255" cy="170" rx="22.4" ry="21.6" fill="white" /><circle cx="250" cy="173" r="9.6" fill="#2D2D2D" /><path d="M116.2 124 Q145 118 173.8 130" fill="none" stroke="#C0392B" stroke-width="4.4" stroke-linecap="round" /><path d="M226.2 130 Q255 118 283.8 124" fill="none" stroke="#C0392B" stroke-width="4.4" stroke-linecap="round" /></g><g id="expr-surprised" style="display:none" data-replace-mouth="true" data-replace-eyes="true"><ellipse cx="200" cy="268" rx="12" ry="15" fill="#C0392B" opacity="0.85" /><ellipse cx="145" cy="170" rx="32" ry="46.8" fill="white" /><circle cx="150" cy="176.5" r="16" fill="#2D2D2D" /><ellipse cx="255" cy="170" rx="32" ry="46.8" fill="white" /><circle cx="250" cy="176.5" r="16" fill="#2D2D2D" /><path d="M116.2 110 Q145 95.6 173.8 110" fill="none" stroke="#C0392B" stroke-width="3.9" stroke-linecap="round" /><path d="M226.2 110 Q255 95.6 283.8 110" fill="none" stroke="#C0392B" stroke-width="3.9" stroke-linecap="round" /></g><g id="expr-thinking" style="display:none" data-replace-mouth="true" data-replace-eyes="true"><path fill="none" stroke="#C0392B" stroke-width="6" stroke-linecap="round" d="M197 270 Q206.6 264.2 223.4 268" /><ellipse cx="145" cy="167" rx="32" ry="32.4" fill="white" /><circle cx="150" cy="171.5" r="14.4" fill="#2D2D2D" /><ellipse cx="255" cy="167" rx="32" ry="32.4" fill="white" /><circle cx="250" cy="171.5" r="14.4" fill="#2D2D2D" /><path d="M116.2 120 Q145 114.2 173.8 120" fill="none" stroke="#C0392B" stroke-width="3.9" stroke-linecap="round" /><path d="M226.2 120 Q255 104.2 283.8 118" fill="none" stroke="#C0392B" stroke-width="3.9" stroke-linecap="round" /></g><g id="expr-confused" style="display:none" data-replace-mouth="true" data-replace-eyes="true"><path fill="none" stroke="#C0392B" stroke-width="6" stroke-linecap="round" d="M170 268 Q188 260.4 200 268 Q212 275.6 230 268" /><ellipse cx="145" cy="170" rx="32" ry="32.4" fill="white" /><circle cx="150" cy="174.5" r="14.4" fill="#2D2D2D" /><ellipse cx="255" cy="170" rx="28.8" ry="25.2" fill="white" /><circle cx="250" cy="173.5" r="11.2" fill="#2D2D2D" /><path d="M116.2 128 Q145 119.4 173.8 128" fill="none" stroke="#C0392B" stroke-width="3.9" stroke-linecap="round" /><path d="M226.2 128 Q255 112.4 283.8 126" fill="none" stroke="#C0392B" stroke-width="3.9" stroke-linecap="round" /><text x="310" y="125" font-size="32" font-family="sans-serif" font-weight="bold" fill="#666" opacity="0.7" style="animation: wobble 1.2s ease-in-out infinite">?</text></g><g id="expr-excited" style="display:none" data-replace-mouth="true" data-replace-eyes="true"><path fill="#fff" stroke="#C0392B" stroke-width="4.5" stroke-linecap="round" d="M128 266 Q200 362.5 272 266 Z" /><ellipse cx="145" cy="170" rx="32" ry="45" fill="white" /><circle cx="150" cy="176.2" r="16" fill="#2D2D2D" /><ellipse cx="255" cy="170" rx="32" ry="45" fill="white" /><circle cx="250" cy="176.2" r="16" fill="#2D2D2D" /><path d="M116.2 118 Q145 103.6 173.8 118" fill="none" stroke="#C0392B" stroke-width="3.9" stroke-linecap="round" /><path d="M226.2 118 Q255 103.6 283.8 118" fill="none" stroke="#C0392B" stroke-width="3.9" stroke-linecap="round" /><path d="M155 137 L157.4 142.6 L163 145 L157.4 147.4 L155 153 L152.6 147.4 L147 145 L152.6 142.6 Z" fill="#FFD600" opacity="0.8" /><path d="M245 134 L246.8 138.2 L251 140 L246.8 141.8 L245 146 L243.2 141.8 L239 140 L243.2 138.2 Z" fill="#FFD600" opacity="0.6" /></g><g id="expr-scared" style="display:none" data-replace-mouth="true" data-replace-eyes="true"><path fill="#C0392B" stroke="#C0392B" stroke-width="6" stroke-linecap="round" opacity="0.65" d="M166.4 278.1 Q200 234.4 233.6 278.1 Q200 294.9 166.4 278.1 Z" /><ellipse cx="145" cy="170" rx="32" ry="50.4" fill="white" /><circle cx="150" cy="177" r="16" fill="#2D2D2D" /><ellipse cx="255" cy="170" rx="32" ry="50.4" fill="white" /><circle cx="250" cy="177" r="16" fill="#2D2D2D" /><path d="M116.2 113 Q145 98.6 173.8 113" fill="none" stroke="#C0392B" stroke-width="3.9" stroke-linecap="round" /><path d="M226.2 113 Q255 98.6 283.8 113" fill="none" stroke="#C0392B" stroke-width="3.9" stroke-linecap="round" /></g><g id="expr-concerned" style="display:none" data-replace-mouth="true" data-replace-eyes="true"><path fill="none" stroke="#C0392B" stroke-width="6" stroke-linecap="round" d="M158 268 Q200 251.2 242 268" /><ellipse cx="145" cy="170" rx="32" ry="37.8" fill="white" /><circle cx="150" cy="175.2" r="16" fill="#2D2D2D" /><ellipse cx="255" cy="170" rx="32" ry="37.8" fill="white" /><circle cx="250" cy="175.2" r="16" fill="#2D2D2D" /><path d="M116.2 128 Q145 124 173.8 130" fill="none" stroke="#C0392B" stroke-width="3.9" stroke-linecap="round" /><path d="M226.2 130 Q255 124 283.8 128" fill="none" stroke="#C0392B" stroke-width="3.9" stroke-linecap="round" /></g><g id="expr-proud" style="display:none" data-replace-mouth="true" data-replace-eyes="true"><path fill="none" stroke="#C0392B" stroke-width="6" stroke-linecap="round" d="M149 268 Q200 301.6 251 268" /><ellipse cx="145" cy="170" rx="32" ry="30.6" fill="white" /><circle cx="150" cy="174.2" r="13.6" fill="#2D2D2D" /><ellipse cx="255" cy="170" rx="32" ry="30.6" fill="white" /><circle cx="250" cy="174.2" r="13.6" fill="#2D2D2D" /><path d="M116.2 125 Q145 119.2 173.8 125" fill="none" stroke="#C0392B" stroke-width="3.9" stroke-linecap="round" /><path d="M226.2 125 Q255 109.2 283.8 123" fill="none" stroke="#C0392B" stroke-width="3.9" stroke-linecap="round" /></g><g id="expr-love" style="display:none" data-replace-mouth="true" data-replace-eyes="true"><path fill="none" stroke="#C0392B" stroke-width="6" stroke-linecap="round" d="M164 268 Q200 284.8 236 268" /><ellipse cx="145" cy="170" rx="28.8" ry="28.8" fill="white" /><path d="M150 180.1 C137.2 172.4 143.6 163.5 150 169.9 C156.4 163.5 162.8 172.4 150 180.1 Z" fill="#E74C3C" opacity="0.9" /><ellipse cx="255" cy="170" rx="28.8" ry="28.8" fill="white" /><path d="M250 180.1 C237.2 172.4 243.6 163.5 250 169.9 C256.4 163.5 262.8 172.4 250 180.1 Z" fill="#E74C3C" opacity="0.9" /><path d="M116.2 128 Q145 120.8 173.8 128" fill="none" stroke="#C0392B" stroke-width="3.9" stroke-linecap="round" /><path d="M226.2 128 Q255 120.8 283.8 128" fill="none" stroke="#C0392B" stroke-width="3.9" stroke-linecap="round" /><path d="M160 153.6 C160 146.4 148 146.4 148 151.2 C148 157.2 160 162 160 162 C160 162 172 157.2 172 151.2 C172 146.4 160 146.4 160 153.6 Z" fill="#E74C3C" opacity="0.8" /><path d="M240 148 C240 142 230 142 230 146 C230 151 240 155 240 155 C240 155 250 151 250 146 C250 142 240 142 240 148 Z" fill="#E74C3C" opacity="0.6" /></g><g id="expr-crying" style="display:none" data-replace-mouth="true" data-replace-eyes="true"><path fill="#C0392B" stroke="#C0392B" stroke-width="6" stroke-linecap="round" opacity="0.65" d="M161.6 276.8 Q200 238.6 238.4 276.8 Q200 291.5 161.6 276.8 Z" /><ellipse cx="145" cy="170" rx="28.8" ry="21.6" fill="white" /><circle cx="150" cy="173" r="9.6" fill="#2D2D2D" /><ellipse cx="255" cy="170" rx="28.8" ry="21.6" fill="white" /><circle cx="250" cy="173" r="9.6" fill="#2D2D2D" /><path d="M116.2 132 Q145 122 173.8 128" fill="none" stroke="#C0392B" stroke-width="3.9" stroke-linecap="round" /><path d="M226.2 128 Q255 122 283.8 132" fill="none" stroke="#C0392B" stroke-width="3.9" stroke-linecap="round" /><ellipse cx="119" cy="193" rx="6" ry="18" fill="#5DADE2" opacity="0.45" style="animation: tear-stream 1.5s ease-in-out 0s infinite" /><ellipse cx="281" cy="193" rx="6" ry="18" fill="#5DADE2" opacity="0.45" style="animation: tear-stream 1.5s ease-in-out 0.3s infinite" /></g><g id="expr-sleepy" style="display:none" data-replace-mouth="true" data-replace-eyes="true"><ellipse cx="200" cy="268" rx="7.8" ry="6" fill="#C0392B" opacity="0.5" /><path d="M113 170 Q145 158.8 177 170" fill="none" stroke="#2D2D2D" stroke-width="4" stroke-linecap="round" /><path d="M223 170 Q255 158.8 287 170" fill="none" stroke="#2D2D2D" stroke-width="4" stroke-linecap="round" /><path d="M116.2 130 Q145 126.5 173.8 130" fill="none" stroke="#C0392B" stroke-width="3.9" stroke-linecap="round" /><path d="M226.2 130 Q255 126.5 283.8 130" fill="none" stroke="#C0392B" stroke-width="3.9" stroke-linecap="round" /><text x="325" y="120" font-size="28" font-family="sans-serif" font-weight="bold" fill="#999" opacity="0.7" style="animation: float-up 1.5s ease-in-out infinite">z</text><text x="341.8" y="94.8" font-size="19.6" font-family="sans-serif" font-weight="bold" fill="#999" opacity="0.7" style="animation: float-up 1.8s ease-in-out infinite">z</text><text x="358.6" y="69.6" font-size="12.6" font-family="sans-serif" font-weight="bold" fill="#999" opacity="0.7" style="animation: float-up 2.1s ease-in-out infinite">z</text></g><g id="expr-winking" style="display:none" data-replace-mouth="true" data-replace-eyes="true"><path fill="none" stroke="#C0392B" stroke-width="6" stroke-linecap="round" d="M140 268 Q200 318.4 260 268" /><path d="M113 170 Q145 158.8 177 170" fill="none" stroke="#2D2D2D" stroke-width="4" stroke-linecap="round" /><ellipse cx="255" cy="170" rx="32" ry="36" fill="white" /><circle cx="250" cy="175" r="16" fill="#2D2D2D" /><path d="M116.2 128 Q145 119.4 173.8 128" fill="none" stroke="#C0392B" stroke-width="3.9" stroke-linecap="round" /><path d="M226.2 128 Q255 112.4 283.8 126" fill="none" stroke="#C0392B" stroke-width="3.9" stroke-linecap="round" /></g><g id="expr-laughing" style="display:none" data-replace-mouth="true" data-replace-eyes="true"><path fill="#fff" stroke="#C0392B" stroke-width="4.5" stroke-linecap="round" d="M110 266 Q200 318.4 290 266 Z" /><path d="M113 170 Q145 158.8 177 170" fill="none" stroke="#2D2D2D" stroke-width="4" stroke-linecap="round" /><path d="M223 170 Q255 158.8 287 170" fill="none" stroke="#2D2D2D" stroke-width="4" stroke-linecap="round" /><path d="M116.2 122 Q145 101.3 173.8 122" fill="none" stroke="#C0392B" stroke-width="3.9" stroke-linecap="round" /><path d="M226.2 122 Q255 101.3 283.8 122" fill="none" stroke="#C0392B" stroke-width="3.9" stroke-linecap="round" /></g><g id="expr-silly" style="display:none" data-replace-mouth="true" data-replace-eyes="true"><path fill="none" stroke="#C0392B" stroke-width="6" stroke-linecap="round" d="M140 268 Q200 282.7 260 268" /><ellipse cx="145" cy="170" rx="33.6" ry="50.4" fill="white" /><circle cx="150" cy="177" r="16.8" fill="#2D2D2D" /><ellipse cx="255" cy="170" rx="27.2" ry="16.2" fill="white" /><circle cx="250" cy="172.2" r="7.2" fill="#2D2D2D" /><path d="M116.2 116 Q130.6 108.8 145 116 Q159.4 119.6 173.8 114" fill="none" stroke="#C0392B" stroke-width="3.9" stroke-linecap="round" /><path d="M226.2 117 Q240.6 111.7 255 116 Q269.4 118.2 283.8 116" fill="none" stroke="#C0392B" stroke-width="3.9" stroke-linecap="round" /><ellipse cx="200" cy="283" rx="10" ry="7.5" fill="#E74C6F" /></g><g id="expr-rofl" style="display:none" data-replace-mouth="true" data-replace-eyes="true"><path fill="#fff" stroke="#C0392B" stroke-width="4.5" stroke-linecap="round" d="M104 266 Q200 324.7 296 266 Z" /><path d="M113 170 Q145 158.8 177 170" fill="none" stroke="#2D2D2D" stroke-width="4" stroke-linecap="round" /><path d="M223 170 Q255 158.8 287 170" fill="none" stroke="#2D2D2D" stroke-width="4" stroke-linecap="round" /><path d="M116.2 118 Q145 100.7 173.8 118" fill="none" stroke="#C0392B" stroke-width="3.9" stroke-linecap="round" /><path d="M226.2 118 Q255 100.7 283.8 118" fill="none" stroke="#C0392B" stroke-width="3.9" stroke-linecap="round" /><ellipse cx="119" cy="193" rx="6" ry="18" fill="#5DADE2" opacity="0.45" style="animation: tear-stream 1.5s ease-in-out 0s infinite" /><ellipse cx="281" cy="193" rx="6" ry="18" fill="#5DADE2" opacity="0.45" style="animation: tear-stream 1.5s ease-in-out 0.3s infinite" /></g><g id="blink" style="display:none">
    <path d="M113 175 Q145 185 177 175" fill="#FF8C00" stroke="#E07B00" stroke-width="3" stroke-linecap="round" />
    <path d="M223 175 Q255 185 287 175" fill="#FF8C00" stroke="#E07B00" stroke-width="3" stroke-linecap="round" />
  </g>
<g id="eyebrows-base"><path d="M116.2 126 Q145 118.8 173.8 126" fill="none" stroke="#C0392B" stroke-width="3.9" stroke-linecap="round" /><path d="M226.2 126 Q255 118.8 283.8 126" fill="none" stroke="#C0392B" stroke-width="3.9" stroke-linecap="round" /></g><g id="expr-listening" style="display:none" /><g id="expr-neutral" style="display:none" /></svg>