<?xml version='1.0' encoding='utf-8'?>
<svg xmlns="http://www.w3.org/2000/svg" viewBox="0 0 400 400" id="atlas-avatar-nick" data-viseme-bank="cartoon">
  
  <defs>
    
    <linearGradient id="n-tear" x1="0" y1="0" x2="0" y2="1">
      <stop offset="0%" stop-color="#87CEFA" stop-opacity="0.85" />
      <stop offset="100%" stop-color="#4DA6FF" stop-opacity="0.6" />
    </linearGradient>
    
    <linearGradient id="n-heart" x1="0" y1="0" x2="0" y2="1">
      <stop offset="0%" stop-color="#FF6B8A" />
      <stop offset="100%" stop-color="#E91E63" />
    </linearGradient>
    
    <radialGradient id="n-sparkle" cx="50%" cy="50%" r="50%">
      <stop offset="0%" stop-color="#FFF176" />
      <stop offset="100%" stop-color="#FFD600" stop-opacity="0" />
    </radialGradient>
    
    <radialGradient id="n-mouth-fill" cx="50%" cy="40%" r="60%">
      <stop offset="0%" stop-color="#1A1A1A" />
      <stop offset="100%" stop-color="#0A0A0A" />
    </radialGradient>
    
    <clipPath id="clip-teeth"><ellipse cx="200" cy="290" rx="48" ry="18" /></clipPath>
    <clipPath id="clip-open"><ellipse cx="200" cy="296" rx="48" ry="32" /></clipPath>
    <clipPath id="clip-fv"><ellipse cx="200" cy="286" rx="42" ry="12" /></clipPath>
  </defs>

  
  <g id="face-base">
    
  </g>

  
  <g id="eyes-base">
    <ellipse cx="148" cy="150" rx="40" ry="46" fill="#111" />
    <ellipse cx="157" cy="136" rx="11" ry="13" fill="white" opacity="0.9" class="pupil-left" />
    <circle cx="152" cy="131" r="5" fill="white" opacity="0.7" class="glint" />
    <ellipse cx="252" cy="150" rx="40" ry="46" fill="#111" />
    <ellipse cx="243" cy="136" rx="11" ry="13" fill="white" opacity="0.9" class="pupil-right" />
    <circle cx="248" cy="131" r="5" fill="white" opacity="0.7" class="glint" />
  </g>

  

  
  <g id="mouth-IDLE" style="display:none">
    <path d="M110 290 Q200 355 290 290" fill="none" stroke="#111" stroke-width="9" stroke-linecap="round" />
  </g>

  
  <g id="mouth-IDLE-TALK" style="display:none">
    <path d="M148 294 Q200 330 252 294" fill="none" stroke="#111" stroke-width="8" stroke-linecap="round" />
  </g>

  
  <g id="mouth-CLOSED" style="display:none">
    <path d="M130 300 Q200 310 270 300" fill="#111" stroke="#111" stroke-width="7" stroke-linecap="round" />
  </g>

  
  <g id="mouth-OPEN" style="display:none">
    <ellipse cx="200" cy="304" rx="56" ry="38" fill="url(#n-mouth-fill)" />
    <rect x="152" y="274" width="96" height="12" rx="5" fill="white" clip-path="url(#clip-open)" />
    <ellipse cx="200" cy="324" rx="26" ry="14" fill="#C0392B" opacity="0.45" />
  </g>

  
  <g id="mouth-ROUND" style="display:none">
    <ellipse cx="200" cy="300" rx="30" ry="32" fill="url(#n-mouth-fill)" />
  </g>

  
  <g id="mouth-TEETH" style="display:none">
    <ellipse cx="200" cy="298" rx="54" ry="24" fill="url(#n-mouth-fill)" />
    <rect x="156" y="288" width="88" height="12" rx="5" fill="white" clip-path="url(#clip-teeth)" />
  </g>

  
  <g id="mouth-FV" style="display:none">
    <path d="M140 292 Q200 284 260 292" fill="none" stroke="#111" stroke-width="8" stroke-linecap="round" />
    <rect x="168" y="294" width="64" height="7" rx="3" fill="white" opacity="0.85" clip-path="url(#clip-fv)" />
    <path d="M154 300 Q200 316 246 300" fill="#111" opacity="0.35" />
  </g>

  
  <g id="mouth-PP" style="display:none"><use href="#mouth-CLOSED" /></g>
  <g id="mouth-FF" style="display:none"><use href="#mouth-FV" /></g>
  <g id="mouth-TH" style="display:none"><use href="#mouth-TEETH" /></g>
  <g id="mouth-DD" style="display:none"><use href="#mouth-CLOSED" /></g>
  <g id="mouth-KK" style="display:none"><use href="#mouth-OPEN" /></g>
  <g id="mouth-SS" style="display:none"><use href="#mouth-TEETH" /></g>
  <g id="mouth-SH" style="display:none"><use href="#mouth-ROUND" /></g>
  <g id="mouth-RR" style="display:none"><use href="#mouth-ROUND" /></g>
  <g id="mouth-NN" style="display:none"><use href="#mouth-CLOSED" /></g>
  <g id="mouth-IH" style="display:none"><use href="#mouth-TEETH" /></g>
  <g id="mouth-EH" style="display:none"><use href="#mouth-TEETH" /></g>
  <g id="mouth-AA" style="display:none"><use href="#mouth-OPEN" /></g>
  <g id="mouth-OH" style="display:none"><use href="#mouth-ROUND" /></g>
  <g id="mouth-OU" style="display:none"><use href="#mouth-ROUND" /></g>

  

  
  <g id="mouth-anchor" data-cx="200" data-cy="304" style="display:none" />
  <g id="eyes-anchor" data-cx="200" data-cy="150" style="display:none" />
  <g id="eyebrows-anchor" data-cx="200" data-cy="118" style="display:none" />

  <g id="expr-happy" style="display:none" data-replace-mouth="true" data-replace-eyes="true"><path fill="none" stroke="#111" stroke-width="9" stroke-linecap="round" d="M110 290 Q200 374.5 290 290" /><ellipse cx="148" cy="150" rx="38" ry="34.5" fill="#111" /><ellipse cx="157" cy="139.5" rx="8.2" ry="9.8" fill="white" opacity="0.9" /><circle cx="152" cy="135.8" r="3.8" fill="white" opacity="0.7" /><ellipse cx="252" cy="150" rx="38" ry="34.5" fill="#111" /><ellipse cx="243" cy="139.5" rx="8.2" ry="9.8" fill="white" opacity="0.9" /><circle cx="248" cy="135.8" r="3.8" fill="white" opacity="0.7" /><path d="M112 93 Q148 71.4 184 93" fill="none" stroke="#111" stroke-width="5.9" stroke-linecap="round" /><path d="M216 93 Q252 71.4 288 93" fill="none" stroke="#111" stroke-width="5.9" stroke-linecap="round" /></g><g id="expr-sad" style="display:none" data-replace-mouth="true" data-replace-eyes="true"><path fill="none" stroke="#111" stroke-width="9" stroke-linecap="round" d="M128 290 Q200 251 272 290" /><ellipse cx="148" cy="152" rx="38" ry="34.5" fill="#111" /><ellipse cx="157" cy="141.5" rx="8.2" ry="9.8" fill="white" opacity="0.9" /><circle cx="152" cy="137.8" r="3.8" fill="white" opacity="0.7" /><ellipse cx="252" cy="152" rx="38" ry="34.5" fill="#111" /><ellipse cx="243" cy="141.5" rx="8.2" ry="9.8" fill="white" opacity="0.9" /><circle cx="248" cy="137.8" r="3.8" fill="white" opacity="0.7" /><path d="M112 101 Q148 90 184 98" fill="none" stroke="#111" stroke-width="5.9" stroke-linecap="round" /><path d="M216 98 Q252 90 288 101" fill="none" stroke="#111" stroke-width="5.9" stroke-linecap="round" /></g><g id="expr-angry" style="display:none" data-replace-mouth="true" data-replace-eyes="true"><path fill="none" stroke="#111" stroke-width="9" stroke-linecap="round" d="M146 290 Q200 257.5 254 290" /><ellipse cx="148" cy="150" rx="28" ry="27.6" fill="#111" /><ellipse cx="157" cy="141.6" rx="6.6" ry="7.8" fill="white" opacity="0.9" /><circle cx="152" cy="138.6" r="3" fill="white" opacity="0.7" /><ellipse cx="252" cy="150" rx="28" ry="27.6" fill="#111" /><ellipse cx="243" cy="141.6" rx="6.6" ry="7.8" fill="white" opacity="0.9" /><circle cx="248" cy="138.6" r="3" fill="white" opacity="0.7" /><path d="M112 94 Q148 88 184 100" fill="none" stroke="#111" stroke-width="6.4" stroke-linecap="round" /><path d="M216 100 Q252 88 288 94" fill="none" stroke="#111" stroke-width="6.4" stroke-linecap="round" /></g><g id="expr-surprised" style="display:none" data-replace-mouth="true" data-replace-eyes="true"><ellipse cx="200" cy="290" rx="18" ry="22.5" fill="#111" opacity="0.85" /><ellipse cx="148" cy="150" rx="40" ry="59.8" fill="#111" /><ellipse cx="157" cy="131.8" rx="11" ry="13" fill="white" opacity="0.9" /><circle cx="152" cy="125.3" r="5" fill="white" opacity="0.7" /><ellipse cx="252" cy="150" rx="40" ry="59.8" fill="#111" /><ellipse cx="243" cy="131.8" rx="11" ry="13" fill="white" opacity="0.9" /><circle cx="248" cy="125.3" r="5" fill="white" opacity="0.7" /><path d="M112 80 Q148 62 184 80" fill="none" stroke="#111" stroke-width="5.9" stroke-linecap="round" /><path d="M216 80 Q252 62 288 80" fill="none" stroke="#111" stroke-width="5.9" stroke-linecap="round" /></g><g id="expr-thinking" style="display:none" data-replace-mouth="true" data-replace-eyes="true"><path fill="none" stroke="#111" stroke-width="9" stroke-linecap="round" d="M195.5 292 Q209.9 284.1 235.1 290" /><ellipse cx="148" cy="147" rx="40" ry="41.4" fill="#111" /><ellipse cx="157" cy="134.4" rx="9.9" ry="11.7" fill="white" opacity="0.9" /><circle cx="152" cy="129.9" r="4.5" fill="white" opacity="0.7" /><ellipse cx="252" cy="147" rx="40" ry="41.4" fill="#111" /><ellipse cx="243" cy="134.4" rx="9.9" ry="11.7" fill="white" opacity="0.9" /><circle cx="248" cy="129.9" r="4.5" fill="white" opacity="0.7" /><path d="M112 90 Q148 82.8 184 90" fill="none" stroke="#111" stroke-width="5.9" stroke-linecap="round" /><path d="M216 90 Q252 70.2 288 88" fill="none" stroke="#111" stroke-width="5.9" stroke-linecap="round" /></g><g id="expr-confused" style="display:none" data-replace-mouth="true" data-replace-eyes="true"><path fill="none" stroke="#111" stroke-width="9" stroke-linecap="round" d="M155 290 Q182 278.3 200 290 Q218 301.7 245 290" /><ellipse cx="148" cy="150" rx="40" ry="41.4" fill="#111" /><ellipse cx="157" cy="137.4" rx="9.9" ry="11.7" fill="white" opacity="0.9" /><circle cx="152" cy="132.9" r="4.5" fill="white" opacity="0.7" /><ellipse cx="252" cy="150" rx="36" ry="32.2" fill="#111" /><ellipse cx="243" cy="140.2" rx="7.7" ry="9.1" fill="white" opacity="0.9" /><circle cx="248" cy="136.7" r="3.5" fill="white" opacity="0.7" /><path d="M112 98 Q148 87.2 184 98" fill="none" stroke="#111" stroke-width="5.9" stroke-linecap="round" /><path d="M216 98 Q252 78.6 288 96" fill="none" stroke="#111" stroke-width="5.9" stroke-linecap="round" /><text x="302" y="115" font-size="16" font-family="sans-serif" font-weight="bold" fill="#666" opacity="0.7">?</text></g><g id="expr-excited" style="display:none" data-replace-mouth="true" data-replace-eyes="true"><path fill="#fff" stroke="#111" stroke-width="6.8" stroke-linecap="round" d="M92 288 Q200 436.2 308 288 Z" /><ellipse cx="148" cy="150" rx="40" ry="57.5" fill="#111" /><ellipse cx="157" cy="132.5" rx="11" ry="13" fill="white" opacity="0.9" /><circle cx="152" cy="126.2" r="5" fill="white" opacity="0.7" /><ellipse cx="252" cy="150" rx="40" ry="57.5" fill="#111" /><ellipse cx="243" cy="132.5" rx="11" ry="13" fill="white" opacity="0.9" /><circle cx="248" cy="126.2" r="5" fill="white" opacity="0.7" /><path d="M112 88 Q148 70 184 88" fill="none" stroke="#111" stroke-width="5.9" stroke-linecap="round" /><path d="M216 88 Q252 70 288 88" fill="none" stroke="#111" stroke-width="5.9" stroke-linecap="round" /><path d="M155 117 L157.4 122.6 L163 125 L157.4 127.4 L155 133 L152.6 127.4 L147 125 L152.6 122.6 Z" fill="#FFD600" opacity="0.8" /><path d="M245 114 L246.8 118.2 L251 120 L246.8 121.8 L245 126 L243.2 121.8 L239 120 L243.2 118.2 Z" fill="#FFD600" opacity="0.6" /></g><g id="expr-scared" style="display:none" data-replace-mouth="true" data-replace-eyes="true"><path fill="#111" stroke="#111" stroke-width="9" stroke-linecap="round" opacity="0.65" d="M149.6 305.6 Q200 238 250.4 305.6 Q200 331.6 149.6 305.6 Z" /><ellipse cx="148" cy="150" rx="40" ry="64.4" fill="#111" /><ellipse cx="157" cy="130.4" rx="11" ry="13" fill="white" opacity="0.9" /><circle cx="152" cy="123.4" r="5" fill="white" opacity="0.7" /><ellipse cx="252" cy="150" rx="40" ry="64.4" fill="#111" /><ellipse cx="243" cy="130.4" rx="11" ry="13" fill="white" opacity="0.9" /><circle cx="248" cy="123.4" r="5" fill="white" opacity="0.7" /><path d="M112 83 Q148 65 184 83" fill="none" stroke="#111" stroke-width="5.9" stroke-linecap="round" /><path d="M216 83 Q252 65 288 83" fill="none" stroke="#111" stroke-width="5.9" stroke-linecap="round" /></g><g id="expr-concerned" style="display:none" data-replace-mouth="true" data-replace-eyes="true"><path fill="none" stroke="#111" stroke-width="9" stroke-linecap="round" d="M137 290 Q200 264 263 290" /><ellipse cx="148" cy="150" rx="40" ry="48.3" fill="#111" /><ellipse cx="157" cy="135.3" rx="11" ry="13" fill="white" opacity="0.9" /><circle cx="152" cy="130.1" r="5" fill="white" opacity="0.7" /><ellipse cx="252" cy="150" rx="40" ry="48.3" fill="#111" /><ellipse cx="243" cy="135.3" rx="11" ry="13" fill="white" opacity="0.9" /><circle cx="248" cy="130.1" r="5" fill="white" opacity="0.7" /><path d="M112 98 Q148 94 184 100" fill="none" stroke="#111" stroke-width="5.9" stroke-linecap="round" /><path d="M216 100 Q252 94 288 98" fill="none" stroke="#111" stroke-width="5.9" stroke-linecap="round" /></g><g id="expr-proud" style="display:none" data-replace-mouth="true" data-replace-eyes="true"><path fill="none" stroke="#111" stroke-width="9" stroke-linecap="round" d="M119 292 Q200 290 281 280.2" /><ellipse cx="148" cy="150" rx="38" ry="36.8" fill="#111" /><ellipse cx="157" cy="138.8" rx="8.8" ry="10.4" fill="white" opacity="0.9" /><circle cx="152" cy="134.8" r="4" fill="white" opacity="0.7" /><ellipse cx="252" cy="150" rx="38" ry="36.8" fill="#111" /><ellipse cx="243" cy="138.8" rx="8.8" ry="10.4" fill="white" opacity="0.9" /><circle cx="248" cy="134.8" r="4" fill="white" opacity="0.7" /><path d="M112 98 Q148 90.8 184 98" fill="none" stroke="#111" stroke-width="5.9" stroke-linecap="round" /><path d="M216 98 Q252 78.2 288 96" fill="none" stroke="#111" stroke-width="5.9" stroke-linecap="round" /></g><g id="expr-love" style="display:none" data-replace-mouth="true" data-replace-eyes="true"><ellipse cx="200" cy="290" rx="11.7" ry="14.4" fill="#e74c6f" opacity="0.8" /><ellipse cx="148" cy="151" rx="36" ry="29.9" fill="#111" /><ellipse cx="157" cy="141.9" rx="7.2" ry="8.5" fill="white" opacity="0.9" /><circle cx="152" cy="138.7" r="3.2" fill="white" opacity="0.7" /><ellipse cx="252" cy="151" rx="36" ry="29.9" fill="#111" /><ellipse cx="243" cy="141.9" rx="7.2" ry="8.5" fill="white" opacity="0.9" /><circle cx="248" cy="138.7" r="3.2" fill="white" opacity="0.7" /><path d="M112 98 Q148 89 184 98" fill="none" stroke="#111" stroke-width="5.9" stroke-linecap="round" /><path d="M216 98 Q252 89 288 98" fill="none" stroke="#111" stroke-width="5.9" stroke-linecap="round" /><path d="M160 133.6 C160 126.4 148 126.4 148 131.2 C148 137.2 160 142 160 142 C160 142 172 137.2 172 131.2 C172 126.4 160 126.4 160 133.6 Z" fill="#E74C3C" opacity="0.8" /><path d="M240 128 C240 122 230 122 230 126 C230 131 240 135 240 135 C240 135 250 131 250 126 C250 122 240 122 240 128 Z" fill="#E74C3C" opacity="0.6" /></g><g id="expr-crying" style="display:none" data-replace-mouth="true" data-replace-eyes="true"><path fill="#111" stroke="#111" stroke-width="9" stroke-linecap="round" opacity="0.65" d="M142.4 303.6 Q200 244.5 257.6 303.6 Q200 326.4 142.4 303.6 Z" /><ellipse cx="148" cy="150" rx="36" ry="27.6" fill="#111" /><ellipse cx="157" cy="141.6" rx="6.6" ry="7.8" fill="white" opacity="0.9" /><circle cx="152" cy="138.6" r="3" fill="white" opacity="0.7" /><ellipse cx="252" cy="150" rx="36" ry="27.6" fill="#111" /><ellipse cx="243" cy="141.6" rx="6.6" ry="7.8" fill="white" opacity="0.9" /><circle cx="248" cy="138.6" r="3" fill="white" opacity="0.7" /><path d="M112 102 Q148 92 184 98" fill="none" stroke="#111" stroke-width="5.9" stroke-linecap="round" /><path d="M216 98 Q252 92 288 102" fill="none" stroke="#111" stroke-width="5.9" stroke-linecap="round" /><ellipse cx="143" cy="221" rx="4" ry="7" fill="#5DADE2" opacity="0.7" /><ellipse cx="257" cy="221" rx="4" ry="7" fill="#5DADE2" opacity="0.7" /></g><g id="expr-sleepy" style="display:none" data-replace-mouth="true" data-replace-eyes="true"><ellipse cx="200" cy="290" rx="11.7" ry="9" fill="#111" opacity="0.5" /><path d="M108 150 Q148 136 188 150" fill="none" stroke="#111" stroke-width="4" stroke-linecap="round" /><path d="M212 150 Q252 136 292 150" fill="none" stroke="#111" stroke-width="4" stroke-linecap="round" /><path d="M112 100 Q148 95.7 184 100" fill="none" stroke="#111" stroke-width="5.9" stroke-linecap="round" /><path d="M216 100 Q252 95.7 288 100" fill="none" stroke="#111" stroke-width="5.9" stroke-linecap="round" /><text x="312" y="110" font-size="14" font-family="sans-serif" font-weight="bold" fill="#999" opacity="0.7">z</text><text x="320.4" y="97.4" font-size="9.8" font-family="sans-serif" font-weight="bold" fill="#999" opacity="0.7">z</text><text x="328.8" y="84.8" font-size="6.3" font-family="sans-serif" font-weight="bold" fill="#999" opacity="0.7">z</text></g><g id="expr-winking" style="display:none" data-replace-mouth="true" data-replace-eyes="true"><path fill="none" stroke="#111" stroke-width="9" stroke-linecap="round" d="M110 290 Q200 368 290 290" /><path d="M108 150 Q148 136 188 150" fill="none" stroke="#111" stroke-width="4" stroke-linecap="round" /><ellipse cx="252" cy="150" rx="40" ry="46" fill="#111" /><ellipse cx="243" cy="136" rx="11" ry="13" fill="white" opacity="0.9" /><circle cx="248" cy="131" r="5" fill="white" opacity="0.7" /><path d="M112 98 Q148 87.2 184 98" fill="none" stroke="#111" stroke-width="5.9" stroke-linecap="round" /><path d="M216 98 Q252 78.6 288 96" fill="none" stroke="#111" stroke-width="5.9" stroke-linecap="round" /></g><g id="expr-laughing" style="display:none" data-replace-mouth="true" data-replace-eyes="true"><path fill="#fff" stroke="#111" stroke-width="6.8" stroke-linecap="round" d="M65 288 Q200 368 335 288 Z" /><path d="M108 150 Q148 136 188 150" fill="none" stroke="#111" stroke-width="4" stroke-linecap="round" /><path d="M212 150 Q252 136 292 150" fill="none" stroke="#111" stroke-width="4" stroke-linecap="round" /><path d="M112 92 Q148 66.1 184 92" fill="none" stroke="#111" stroke-width="5.9" stroke-linecap="round" /><path d="M216 92 Q252 66.1 288 92" fill="none" stroke="#111" stroke-width="5.9" stroke-linecap="round" /></g><g id="expr-silly" style="display:none" data-replace-mouth="true" data-replace-eyes="true"><path fill="none" stroke="#111" stroke-width="9" stroke-linecap="round" d="M110 290 Q200 312.8 290 290" /><ellipse cx="148" cy="150" rx="42" ry="64.4" fill="#111" /><ellipse cx="157" cy="130.4" rx="11.6" ry="13.7" fill="white" opacity="0.9" /><circle cx="152" cy="123.4" r="5.2" fill="white" opacity="0.7" /><ellipse cx="252" cy="150" rx="34" ry="20.7" fill="#111" /><ellipse cx="243" cy="143.7" rx="5" ry="5.9" fill="white" opacity="0.9" /><circle cx="248" cy="141.4" r="2.2" fill="white" opacity="0.7" /><path d="M112 86 Q130 77 148 86 Q166 90.5 184 84" fill="none" stroke="#111" stroke-width="5.9" stroke-linecap="round" /><path d="M216 87 Q234 80.6 252 86 Q270 88.7 288 86" fill="none" stroke="#111" stroke-width="5.9" stroke-linecap="round" /><ellipse cx="200" cy="305" rx="10" ry="7.5" fill="#E74C6F" /></g><g id="expr-rofl" style="display:none" data-replace-mouth="true" data-replace-eyes="true"><path fill="#fff" stroke="#111" stroke-width="6.8" stroke-linecap="round" d="M56 288 Q200 377.8 344 288 Z" /><path d="M108 150 Q148 136 188 150" fill="none" stroke="#111" stroke-width="4" stroke-linecap="round" /><path d="M212 150 Q252 136 292 150" fill="none" stroke="#111" stroke-width="4" stroke-linecap="round" /><path d="M112 88 Q148 66.4 184 88" fill="none" stroke="#111" stroke-width="5.9" stroke-linecap="round" /><path d="M216 88 Q252 66.4 288 88" fill="none" stroke="#111" stroke-width="5.9" stroke-linecap="round" /><ellipse cx="143" cy="216" rx="4" ry="7" fill="#5DADE2" opacity="0.6" /><ellipse cx="257" cy="216" rx="4" ry="7" fill="#5DADE2" opacity="0.6" /></g><g id="blink" style="display:none">
    
    <rect x="108" y="104" width="80" height="100" rx="4" fill="var(--face-bg, #FF9E1B)" class="lid-fill" />
    <path d="M108 154 Q148 170 188 154" fill="none" stroke="#111" stroke-width="4" stroke-linecap="round" />
    <rect x="212" y="104" width="80" height="100" rx="4" fill="var(--face-bg, #FF9E1B)" class="lid-fill" />
    <path d="M212 154 Q252 170 292 154" fill="none" stroke="#111" stroke-width="4" stroke-linecap="round" />
  </g>
<g id="expr-listening" style="display:none" /><g id="expr-neutral" style="display:none" /></svg>