<?xml version='1.0' encoding='utf-8'?>
<svg xmlns="http://www.w3.org/2000/svg" viewBox="0 0 400 400" id="atlas-avatar-nick" data-viseme-bank="cartoon">
  
  <defs>
    
    <linearGradient id="n-bg-grad" x1="0" y1="0" x2="0" y2="1">
      <stop offset="0%" stop-color="#1a1a3e" />
      <stop offset="100%" stop-color="#2d1b4e" />
    </linearGradient>
    
    <radialGradient id="n-face-grad" cx="50%" cy="42%" r="52%">
      <stop offset="0%" stop-color="#7dd8ff" />
      <stop offset="70%" stop-color="#64c8ff" />
      <stop offset="100%" stop-color="#4ab8f0" />
    </radialGradient>
    
    <linearGradient id="n-tear" x1="0" y1="0" x2="0" y2="1">
      <stop offset="0%" stop-color="#87CEFA" stop-opacity="0.85" />
      <stop offset="100%" stop-color="#4DA6FF" stop-opacity="0.6" />
    </linearGradient>
    
    <linearGradient id="n-heart" x1="0" y1="0" x2="0" y2="1">
      <stop offset="0%" stop-color="#FF6B8A" />
      <stop offset="100%" stop-color="#E91E63" />
    </linearGradient>
    
    <radialGradient id="n-sparkle" cx="50%" cy="50%" r="50%">
      <stop offset="0%" stop-color="#FFF176" />
      <stop offset="100%" stop-color="#FFD600" stop-opacity="0" />
    </radialGradient>
    
    <radialGradient id="n-mouth-fill" cx="50%" cy="40%" r="60%">
      <stop offset="0%" stop-color="#1A1A1A" />
      <stop offset="100%" stop-color="#0A0A0A" />
    </radialGradient>
    
    <clipPath id="clip-teeth"><ellipse cx="200" cy="302" rx="60" ry="22" /></clipPath>
    <clipPath id="clip-open"><ellipse cx="200" cy="310" rx="60" ry="40" /></clipPath>
    <clipPath id="clip-fv"><ellipse cx="200" cy="298" rx="55" ry="14" /></clipPath>
  </defs>

  
  <g id="face-base">
    <rect width="400" height="400" fill="url(#n-bg-grad)" rx="0" />
    <ellipse cx="200" cy="210" rx="168" ry="178" fill="url(#n-face-grad)" />
  </g>

  
  <g id="eyes-base">
    <ellipse cx="142" cy="160" rx="58" ry="68" fill="#111" />
    <ellipse cx="155" cy="140" rx="16" ry="18" fill="white" opacity="0.9" class="pupil-left" />
    <ellipse cx="258" cy="160" rx="58" ry="68" fill="#111" />
    <ellipse cx="245" cy="140" rx="16" ry="18" fill="white" opacity="0.9" class="pupil-right" />
  </g>

  
  <g id="mouth-IDLE" style="display:none">
    <path d="M80 305 Q200 385 320 305" fill="none" stroke="#111" stroke-width="10" stroke-linecap="round" />
  </g>

  <g id="mouth-IDLE-TALK" style="display:none">
    <path d="M130 310 Q200 350 270 310" fill="none" stroke="#111" stroke-width="9" stroke-linecap="round" />
  </g>

  <g id="mouth-CLOSED" style="display:none">
    <path d="M110 315 Q200 328 290 315" fill="#111" stroke="#111" stroke-width="8" stroke-linecap="round" />
  </g>

  <g id="mouth-OPEN" style="display:none">
    <ellipse cx="200" cy="318" rx="68" ry="46" fill="url(#n-mouth-fill)" />
    <rect x="140" y="282" width="120" height="14" rx="6" fill="white" clip-path="url(#clip-open)" />
    <ellipse cx="200" cy="340" rx="30" ry="16" fill="#C0392B" opacity="0.45" />
  </g>

  <g id="mouth-ROUND" style="display:none">
    <ellipse cx="200" cy="314" rx="36" ry="38" fill="url(#n-mouth-fill)" />
  </g>

  <g id="mouth-TEETH" style="display:none">
    <ellipse cx="200" cy="312" rx="66" ry="30" fill="url(#n-mouth-fill)" />
    <rect x="144" y="300" width="112" height="14" rx="6" fill="white" clip-path="url(#clip-teeth)" />
  </g>

  <g id="mouth-FV" style="display:none">
    <path d="M120 306 Q200 296 280 306" fill="none" stroke="#111" stroke-width="9" stroke-linecap="round" />
    <rect x="155" y="308" width="90" height="8" rx="4" fill="white" opacity="0.85" clip-path="url(#clip-fv)" />
    <path d="M138 316 Q200 334 262 316" fill="#111" opacity="0.35" />
  </g>

  
  <g id="mouth-PP" style="display:none"><use href="#mouth-CLOSED" /></g>
  <g id="mouth-FF" style="display:none"><use href="#mouth-FV" /></g>
  <g id="mouth-TH" style="display:none"><use href="#mouth-TEETH" /></g>
  <g id="mouth-DD" style="display:none"><use href="#mouth-CLOSED" /></g>
  <g id="mouth-KK" style="display:none"><use href="#mouth-OPEN" /></g>
  <g id="mouth-SS" style="display:none"><use href="#mouth-TEETH" /></g>
  <g id="mouth-SH" style="display:none"><use href="#mouth-ROUND" /></g>
  <g id="mouth-RR" style="display:none"><use href="#mouth-ROUND" /></g>
  <g id="mouth-NN" style="display:none"><use href="#mouth-CLOSED" /></g>
  <g id="mouth-IH" style="display:none"><use href="#mouth-TEETH" /></g>
  <g id="mouth-EH" style="display:none"><use href="#mouth-TEETH" /></g>
  <g id="mouth-AA" style="display:none"><use href="#mouth-OPEN" /></g>
  <g id="mouth-OH" style="display:none"><use href="#mouth-ROUND" /></g>
  <g id="mouth-OU" style="display:none"><use href="#mouth-ROUND" /></g>

  
  <g id="mouth-anchor" data-cx="200" data-cy="318" style="display:none" />
  <g id="eyes-anchor" data-cx="200" data-cy="160" style="display:none" />
  <g id="eyebrows-anchor" data-cx="200" data-cy="82" style="display:none" />

  <g id="expr-happy" style="display:none" data-replace-mouth="true" data-replace-eyes="true"><path fill="none" stroke="#111" stroke-width="10" stroke-linecap="round" d="M80 305 Q200 409 320 305" /><ellipse cx="142" cy="160" rx="55.1" ry="51" fill="#111" /><ellipse cx="155" cy="145" rx="12" ry="13.5" fill="white" opacity="0.9" /><ellipse cx="258" cy="160" rx="55.1" ry="51" fill="#111" /><ellipse cx="245" cy="145" rx="12" ry="13.5" fill="white" opacity="0.9" /><path d="M89.8 81 Q142 49.7 194.2 81" fill="none" stroke="#111" stroke-width="6.5" stroke-linecap="round" /><path d="M205.8 81 Q258 49.7 310.2 81" fill="none" stroke="#111" stroke-width="6.5" stroke-linecap="round" /></g><g id="expr-sad" style="display:none" data-replace-mouth="true" data-replace-eyes="true"><path fill="none" stroke="#111" stroke-width="10" stroke-linecap="round" d="M104 305 Q200 257 296 305" /><ellipse cx="142" cy="162" rx="55.1" ry="51" fill="#111" /><ellipse cx="155" cy="147" rx="12" ry="13.5" fill="white" opacity="0.9" /><ellipse cx="258" cy="162" rx="55.1" ry="51" fill="#111" /><ellipse cx="245" cy="147" rx="12" ry="13.5" fill="white" opacity="0.9" /><path d="M89.8 89 Q142 78 194.2 86" fill="none" stroke="#111" stroke-width="6.5" stroke-linecap="round" /><path d="M205.8 86 Q258 78 310.2 89" fill="none" stroke="#111" stroke-width="6.5" stroke-linecap="round" /></g><g id="expr-angry" style="display:none" data-replace-mouth="true" data-replace-eyes="true"><path fill="none" stroke="#111" stroke-width="10" stroke-linecap="round" d="M116 305 Q200 281 284 305" /><ellipse cx="142" cy="160" rx="40.6" ry="40.8" fill="#111" /><ellipse cx="155" cy="148" rx="9.6" ry="10.8" fill="white" opacity="0.9" /><ellipse cx="258" cy="160" rx="40.6" ry="40.8" fill="#111" /><ellipse cx="245" cy="148" rx="9.6" ry="10.8" fill="white" opacity="0.9" /><path d="M89.8 82 Q142 76 194.2 88" fill="none" stroke="#111" stroke-width="7" stroke-linecap="round" /><path d="M205.8 88 Q258 76 310.2 82" fill="none" stroke="#111" stroke-width="7" stroke-linecap="round" /></g><g id="expr-surprised" style="display:none" data-replace-mouth="true" data-replace-eyes="true"><ellipse cx="200" cy="305" rx="24" ry="30" fill="#111" opacity="0.85" /><ellipse cx="142" cy="160" rx="58" ry="88.4" fill="#111" /><ellipse cx="155" cy="134" rx="16" ry="18" fill="white" opacity="0.9" /><ellipse cx="258" cy="160" rx="58" ry="88.4" fill="#111" /><ellipse cx="245" cy="134" rx="16" ry="18" fill="white" opacity="0.9" /><path d="M89.8 68 Q142 41.9 194.2 68" fill="none" stroke="#111" stroke-width="6.5" stroke-linecap="round" /><path d="M205.8 68 Q258 41.9 310.2 68" fill="none" stroke="#111" stroke-width="6.5" stroke-linecap="round" /></g><g id="expr-thinking" style="display:none" data-replace-mouth="true" data-replace-eyes="true"><path fill="none" stroke="#111" stroke-width="10" stroke-linecap="round" d="M194 307 Q213.2 297.8 246.8 305" /><ellipse cx="142" cy="157" rx="58" ry="61.2" fill="#111" /><ellipse cx="155" cy="139" rx="14.4" ry="16.2" fill="white" opacity="0.9" /><ellipse cx="258" cy="157" rx="58" ry="61.2" fill="#111" /><ellipse cx="245" cy="139" rx="14.4" ry="16.2" fill="white" opacity="0.9" /><path d="M89.8 78 Q142 67.6 194.2 78" fill="none" stroke="#111" stroke-width="6.5" stroke-linecap="round" /><path d="M205.8 78 Q258 49.3 310.2 76" fill="none" stroke="#111" stroke-width="6.5" stroke-linecap="round" /></g><g id="expr-confused" style="display:none" data-replace-mouth="true" data-replace-eyes="true"><path fill="none" stroke="#111" stroke-width="10" stroke-linecap="round" d="M140 305 Q176 290.6 200 305 Q224 319.4 260 305" /><ellipse cx="142" cy="160" rx="58" ry="61.2" fill="#111" /><ellipse cx="155" cy="142" rx="14.4" ry="16.2" fill="white" opacity="0.9" /><ellipse cx="258" cy="160" rx="52.2" ry="47.6" fill="#111" /><ellipse cx="245" cy="146" rx="11.2" ry="12.6" fill="white" opacity="0.9" /><path d="M89.8 86 Q142 70.3 194.2 86" fill="none" stroke="#111" stroke-width="6.5" stroke-linecap="round" /><path d="M205.8 86 Q258 57.8 310.2 84" fill="none" stroke="#111" stroke-width="6.5" stroke-linecap="round" /><text x="313" y="115" font-size="32" font-family="sans-serif" font-weight="bold" fill="#666" opacity="0.7" style="animation: wobble 1.2s ease-in-out infinite">?</text></g><g id="expr-excited" style="display:none" data-replace-mouth="true" data-replace-eyes="true"><path fill="#fff" stroke="#111" stroke-width="7.5" stroke-linecap="round" d="M56 303 Q200 485 344 303 Z" /><ellipse cx="142" cy="160" rx="58" ry="85" fill="#111" /><ellipse cx="155" cy="135" rx="16" ry="18" fill="white" opacity="0.9" /><ellipse cx="258" cy="160" rx="58" ry="85" fill="#111" /><ellipse cx="245" cy="135" rx="16" ry="18" fill="white" opacity="0.9" /><path d="M89.8 76 Q142 49.9 194.2 76" fill="none" stroke="#111" stroke-width="6.5" stroke-linecap="round" /><path d="M205.8 76 Q258 49.9 310.2 76" fill="none" stroke="#111" stroke-width="6.5" stroke-linecap="round" /><path d="M155 127 L157.4 132.6 L163 135 L157.4 137.4 L155 143 L152.6 137.4 L147 135 L152.6 132.6 Z" fill="#FFD600" opacity="0.8" /><path d="M245 124 L246.8 128.2 L251 130 L246.8 131.8 L245 136 L243.2 131.8 L239 130 L243.2 128.2 Z" fill="#FFD600" opacity="0.6" /></g><g id="expr-scared" style="display:none" data-replace-mouth="true" data-replace-eyes="true"><path fill="#111" stroke="#111" stroke-width="10" stroke-linecap="round" opacity="0.65" d="M132.8 324.2 Q200 241 267.2 324.2 Q200 356.2 132.8 324.2 Z" /><ellipse cx="142" cy="160" rx="58" ry="95.2" fill="#111" /><ellipse cx="155" cy="132" rx="16" ry="18" fill="white" opacity="0.9" /><ellipse cx="258" cy="160" rx="58" ry="95.2" fill="#111" /><ellipse cx="245" cy="132" rx="16" ry="18" fill="white" opacity="0.9" /><path d="M89.8 71 Q142 44.9 194.2 71" fill="none" stroke="#111" stroke-width="6.5" stroke-linecap="round" /><path d="M205.8 71 Q258 44.9 310.2 71" fill="none" stroke="#111" stroke-width="6.5" stroke-linecap="round" /></g><g id="expr-concerned" style="display:none" data-replace-mouth="true" data-replace-eyes="true"><path fill="none" stroke="#111" stroke-width="10" stroke-linecap="round" d="M116 305 Q200 273 284 305" /><ellipse cx="142" cy="160" rx="58" ry="71.4" fill="#111" /><ellipse cx="155" cy="139" rx="16" ry="18" fill="white" opacity="0.9" /><ellipse cx="258" cy="160" rx="58" ry="71.4" fill="#111" /><ellipse cx="245" cy="139" rx="16" ry="18" fill="white" opacity="0.9" /><path d="M89.8 86 Q142 82 194.2 88" fill="none" stroke="#111" stroke-width="6.5" stroke-linecap="round" /><path d="M205.8 88 Q258 82 310.2 86" fill="none" stroke="#111" stroke-width="6.5" stroke-linecap="round" /></g><g id="expr-proud" style="display:none" data-replace-mouth="true" data-replace-eyes="true"><path fill="none" stroke="#111" stroke-width="10" stroke-linecap="round" d="M98 305 Q200 369 302 305" /><ellipse cx="142" cy="160" rx="58" ry="57.8" fill="#111" /><ellipse cx="155" cy="143" rx="13.6" ry="15.3" fill="white" opacity="0.9" /><ellipse cx="258" cy="160" rx="58" ry="57.8" fill="#111" /><ellipse cx="245" cy="143" rx="13.6" ry="15.3" fill="white" opacity="0.9" /><path d="M89.8 83 Q142 72.6 194.2 83" fill="none" stroke="#111" stroke-width="6.5" stroke-linecap="round" /><path d="M205.8 83 Q258 54.3 310.2 81" fill="none" stroke="#111" stroke-width="6.5" stroke-linecap="round" /></g><g id="expr-love" style="display:none" data-replace-mouth="true" data-replace-eyes="true"><path fill="none" stroke="#111" stroke-width="10" stroke-linecap="round" d="M128 305 Q200 337 272 305" /><ellipse cx="142" cy="160" rx="52.2" ry="54.4" fill="#111" /><path d="M155 145.1 C142.2 137.4 148.6 128.5 155 134.9 C161.4 128.5 167.8 137.4 155 145.1 Z" fill="#E74C3C" opacity="0.9" /><ellipse cx="258" cy="160" rx="52.2" ry="54.4" fill="#111" /><path d="M245 145.1 C232.2 137.4 238.6 128.5 245 134.9 C251.4 128.5 257.8 137.4 245 145.1 Z" fill="#E74C3C" opacity="0.9" /><path d="M89.8 86 Q142 73 194.2 86" fill="none" stroke="#111" stroke-width="6.5" stroke-linecap="round" /><path d="M205.8 86 Q258 73 310.2 86" fill="none" stroke="#111" stroke-width="6.5" stroke-linecap="round" /><path d="M160 143.6 C160 136.4 148 136.4 148 141.2 C148 147.2 160 152 160 152 C160 152 172 147.2 172 141.2 C172 136.4 160 136.4 160 143.6 Z" fill="#E74C3C" opacity="0.8" /><path d="M240 138 C240 132 230 132 230 136 C230 141 240 145 240 145 C240 145 250 141 250 136 C250 132 240 132 240 138 Z" fill="#E74C3C" opacity="0.6" /></g><g id="expr-crying" style="display:none" data-replace-mouth="true" data-replace-eyes="true"><path fill="#111" stroke="#111" stroke-width="10" stroke-linecap="round" opacity="0.65" d="M123.2 321.8 Q200 249 276.8 321.8 Q200 349.8 123.2 321.8 Z" /><ellipse cx="142" cy="160" rx="52.2" ry="40.8" fill="#111" /><ellipse cx="155" cy="148" rx="9.6" ry="10.8" fill="white" opacity="0.9" /><ellipse cx="258" cy="160" rx="52.2" ry="40.8" fill="#111" /><ellipse cx="245" cy="148" rx="9.6" ry="10.8" fill="white" opacity="0.9" /><path d="M89.8 90 Q142 80 194.2 86" fill="none" stroke="#111" stroke-width="6.5" stroke-linecap="round" /><path d="M205.8 86 Q258 80 310.2 90" fill="none" stroke="#111" stroke-width="6.5" stroke-linecap="round" /><ellipse cx="90" cy="246" rx="6" ry="18" fill="#5DADE2" opacity="0.45" style="animation: tear-stream 1.5s ease-in-out 0s infinite" /><ellipse cx="310" cy="246" rx="6" ry="18" fill="#5DADE2" opacity="0.45" style="animation: tear-stream 1.5s ease-in-out 0.3s infinite" /></g><g id="expr-sleepy" style="display:none" data-replace-mouth="true" data-replace-eyes="true"><ellipse cx="200" cy="305" rx="15.6" ry="12" fill="#111" opacity="0.5" /><path d="M84 160 Q142 139.7 200 160" fill="none" stroke="#333" stroke-width="4" stroke-linecap="round" /><path d="M200 160 Q258 139.7 316 160" fill="none" stroke="#333" stroke-width="4" stroke-linecap="round" /><path d="M89.8 88 Q142 81.7 194.2 88" fill="none" stroke="#111" stroke-width="6.5" stroke-linecap="round" /><path d="M205.8 88 Q258 81.7 310.2 88" fill="none" stroke="#111" stroke-width="6.5" stroke-linecap="round" /><text x="328" y="110" font-size="28" font-family="sans-serif" font-weight="bold" fill="#999" opacity="0.7" style="animation: float-up 1.5s ease-in-out infinite">z</text><text x="344.8" y="84.8" font-size="19.6" font-family="sans-serif" font-weight="bold" fill="#999" opacity="0.7" style="animation: float-up 1.8s ease-in-out infinite">z</text><text x="361.6" y="59.6" font-size="12.6" font-family="sans-serif" font-weight="bold" fill="#999" opacity="0.7" style="animation: float-up 2.1s ease-in-out infinite">z</text></g><g id="expr-winking" style="display:none" data-replace-mouth="true" data-replace-eyes="true"><path fill="none" stroke="#111" stroke-width="10" stroke-linecap="round" d="M80 305 Q200 401 320 305" /><path d="M84 160 Q142 139.7 200 160" fill="none" stroke="#333" stroke-width="4" stroke-linecap="round" /><ellipse cx="258" cy="160" rx="58" ry="68" fill="#111" /><ellipse cx="245" cy="140" rx="16" ry="18" fill="white" opacity="0.9" /><path d="M89.8 86 Q142 70.3 194.2 86" fill="none" stroke="#111" stroke-width="6.5" stroke-linecap="round" /><path d="M205.8 86 Q258 57.8 310.2 84" fill="none" stroke="#111" stroke-width="6.5" stroke-linecap="round" /></g><g id="expr-laughing" style="display:none" data-replace-mouth="true" data-replace-eyes="true"><path fill="#fff" stroke="#111" stroke-width="7.5" stroke-linecap="round" d="M20 303 Q200 401 380 303 Z" /><path d="M84 160 Q142 139.7 200 160" fill="none" stroke="#333" stroke-width="4" stroke-linecap="round" /><path d="M200 160 Q258 139.7 316 160" fill="none" stroke="#333" stroke-width="4" stroke-linecap="round" /><path d="M89.8 80 Q142 42.4 194.2 80" fill="none" stroke="#111" stroke-width="6.5" stroke-linecap="round" /><path d="M205.8 80 Q258 42.4 310.2 80" fill="none" stroke="#111" stroke-width="6.5" stroke-linecap="round" /></g><g id="expr-silly" style="display:none" data-replace-mouth="true" data-replace-eyes="true"><path fill="none" stroke="#111" stroke-width="10" stroke-linecap="round" d="M80 305 Q200 333 320 305" /><ellipse cx="142" cy="160" rx="60.9" ry="95.2" fill="#111" /><ellipse cx="155" cy="132" rx="16.8" ry="18.9" fill="white" opacity="0.9" /><ellipse cx="258" cy="160" rx="49.3" ry="30.6" fill="#111" /><ellipse cx="245" cy="151" rx="7.2" ry="8.1" fill="white" opacity="0.9" /><path d="M89.8 74 Q115.9 61 142 74 Q168.1 80.5 194.2 72" fill="none" stroke="#111" stroke-width="6.5" stroke-linecap="round" /><path d="M205.8 75 Q231.9 66.2 258 74 Q284.1 77.9 310.2 74" fill="none" stroke="#111" stroke-width="6.5" stroke-linecap="round" /><ellipse cx="200" cy="320" rx="10" ry="7.5" fill="#E74C6F" /></g><g id="expr-rofl" style="display:none" data-replace-mouth="true" data-replace-eyes="true"><path fill="#fff" stroke="#111" stroke-width="7.5" stroke-linecap="round" d="M8 303 Q200 413 392 303 Z" /><path d="M84 160 Q142 139.7 200 160" fill="none" stroke="#333" stroke-width="4" stroke-linecap="round" /><path d="M200 160 Q258 139.7 316 160" fill="none" stroke="#333" stroke-width="4" stroke-linecap="round" /><path d="M89.8 76 Q142 44.7 194.2 76" fill="none" stroke="#111" stroke-width="6.5" stroke-linecap="round" /><path d="M205.8 76 Q258 44.7 310.2 76" fill="none" stroke="#111" stroke-width="6.5" stroke-linecap="round" /><ellipse cx="90" cy="246" rx="6" ry="18" fill="#5DADE2" opacity="0.45" style="animation: tear-stream 1.5s ease-in-out 0s infinite" /><ellipse cx="310" cy="246" rx="6" ry="18" fill="#5DADE2" opacity="0.45" style="animation: tear-stream 1.5s ease-in-out 0.3s infinite" /></g><g id="blink" style="display:none">
    <rect x="84" y="92" width="116" height="140" rx="4" fill="var(--face-bg, #64c8ff)" class="lid-fill" />
    <path d="M84 164 Q142 184 200 164" fill="none" stroke="#111" stroke-width="4" stroke-linecap="round" />
    <rect x="200" y="92" width="116" height="140" rx="4" fill="var(--face-bg, #64c8ff)" class="lid-fill" />
    <path d="M200 164 Q258 184 316 164" fill="none" stroke="#111" stroke-width="4" stroke-linecap="round" />
  </g>
<g id="eyebrows-base"><path d="M89.8 84 Q142 71 194.2 84" fill="none" stroke="#111" stroke-width="6.5" stroke-linecap="round" /><path d="M205.8 84 Q258 71 310.2 84" fill="none" stroke="#111" stroke-width="6.5" stroke-linecap="round" /></g><g id="expr-listening" style="display:none" /><g id="expr-neutral" style="display:none" /></svg>