<?xml version='1.0' encoding='utf-8'?>
<svg xmlns="http://www.w3.org/2000/svg" viewBox="0 0 400 400" id="atlas-avatar-nick" data-viseme-bank="cartoon">
  
  <defs>
    
    <linearGradient id="n-tear" x1="0" y1="0" x2="0" y2="1">
      <stop offset="0%" stop-color="#87CEFA" stop-opacity="0.85" />
      <stop offset="100%" stop-color="#4DA6FF" stop-opacity="0.6" />
    </linearGradient>
    
    <linearGradient id="n-heart" x1="0" y1="0" x2="0" y2="1">
      <stop offset="0%" stop-color="#FF6B8A" />
      <stop offset="100%" stop-color="#E91E63" />
    </linearGradient>
    
    <radialGradient id="n-sparkle" cx="50%" cy="50%" r="50%">
      <stop offset="0%" stop-color="#FFF176" />
      <stop offset="100%" stop-color="#FFD600" stop-opacity="0" />
    </radialGradient>
    
    <radialGradient id="n-mouth-fill" cx="50%" cy="40%" r="60%">
      <stop offset="0%" stop-color="#1A1A1A" />
      <stop offset="100%" stop-color="#0A0A0A" />
    </radialGradient>
    
    <clipPath id="clip-teeth"><ellipse cx="200" cy="290" rx="48" ry="18" /></clipPath>
    <clipPath id="clip-open"><ellipse cx="200" cy="296" rx="48" ry="32" /></clipPath>
    <clipPath id="clip-fv"><ellipse cx="200" cy="286" rx="42" ry="12" /></clipPath>
  </defs>

  
  <g id="face-base">
    
  </g>

  
  <g id="eyes-base">
    <ellipse cx="148" cy="150" rx="40" ry="46" fill="#111" />
    <ellipse cx="157" cy="136" rx="11" ry="13" fill="white" opacity="0.9" class="pupil-left" />
    <ellipse cx="252" cy="150" rx="40" ry="46" fill="#111" />
    <ellipse cx="243" cy="136" rx="11" ry="13" fill="white" opacity="0.9" class="pupil-right" />
    </g>

  

  
  <g id="mouth-IDLE" style="display:none">
    <path d="M110 290 Q200 355 290 290" fill="none" stroke="#111" stroke-width="9" stroke-linecap="round" />
  </g>

  
  <g id="mouth-IDLE-TALK" style="display:none">
    <path d="M148 294 Q200 330 252 294" fill="none" stroke="#111" stroke-width="8" stroke-linecap="round" />
  </g>

  
  <g id="mouth-CLOSED" style="display:none">
    <path d="M130 300 Q200 310 270 300" fill="#111" stroke="#111" stroke-width="7" stroke-linecap="round" />
  </g>

  
  <g id="mouth-OPEN" style="display:none">
    <ellipse cx="200" cy="304" rx="56" ry="38" fill="url(#n-mouth-fill)" />
    <rect x="152" y="274" width="96" height="12" rx="5" fill="white" clip-path="url(#clip-open)" />
    <ellipse cx="200" cy="324" rx="26" ry="14" fill="#C0392B" opacity="0.45" />
  </g>

  
  <g id="mouth-ROUND" style="display:none">
    <ellipse cx="200" cy="300" rx="30" ry="32" fill="url(#n-mouth-fill)" />
  </g>

  
  <g id="mouth-TEETH" style="display:none">
    <ellipse cx="200" cy="298" rx="54" ry="24" fill="url(#n-mouth-fill)" />
    <rect x="156" y="288" width="88" height="12" rx="5" fill="white" clip-path="url(#clip-teeth)" />
  </g>

  
  <g id="mouth-FV" style="display:none">
    <path d="M140 292 Q200 284 260 292" fill="none" stroke="#111" stroke-width="8" stroke-linecap="round" />
    <rect x="168" y="294" width="64" height="7" rx="3" fill="white" opacity="0.85" clip-path="url(#clip-fv)" />
    <path d="M154 300 Q200 316 246 300" fill="#111" opacity="0.35" />
  </g>

  
  <g id="mouth-PP" style="display:none"><use href="#mouth-CLOSED" /></g>
  <g id="mouth-FF" style="display:none"><use href="#mouth-FV" /></g>
  <g id="mouth-TH" style="display:none"><use href="#mouth-TEETH" /></g>
  <g id="mouth-DD" style="display:none"><use href="#mouth-CLOSED" /></g>
  <g id="mouth-KK" style="display:none"><use href="#mouth-OPEN" /></g>
  <g id="mouth-SS" style="display:none"><use href="#mouth-TEETH" /></g>
  <g id="mouth-SH" style="display:none"><use href="#mouth-ROUND" /></g>
  <g id="mouth-RR" style="display:none"><use href="#mouth-ROUND" /></g>
  <g id="mouth-NN" style="display:none"><use href="#mouth-CLOSED" /></g>
  <g id="mouth-IH" style="display:none"><use href="#mouth-TEETH" /></g>
  <g id="mouth-EH" style="display:none"><use href="#mouth-TEETH" /></g>
  <g id="mouth-AA" style="display:none"><use href="#mouth-OPEN" /></g>
  <g id="mouth-OH" style="display:none"><use href="#mouth-ROUND" /></g>
  <g id="mouth-OU" style="display:none"><use href="#mouth-ROUND" /></g>

  

  
  <g id="mouth-anchor" data-cx="200" data-cy="304" style="display:none" />
  <g id="eyes-anchor" data-cx="200" data-cy="150" style="display:none" />
  <g id="eyebrows-anchor" data-cx="200" data-cy="118" style="display:none" />

  <g id="expr-happy" style="display:none" data-replace-mouth="true" data-replace-eyes="true"><path fill="#111" stroke="#111" stroke-width="6.8" stroke-linecap="round" d="M74 288 Q200 446 326 288 Z" /><ellipse cx="148" cy="150" rx="44" ry="27.6" fill="#111" /><ellipse cx="157" cy="141.6" rx="6.6" ry="7.8" fill="white" opacity="0.9" /><ellipse cx="252" cy="150" rx="44" ry="27.6" fill="#111" /><ellipse cx="243" cy="141.6" rx="6.6" ry="7.8" fill="white" opacity="0.9" /></g><g id="expr-sad" style="display:none" data-replace-mouth="true" data-replace-eyes="true"><path fill="none" stroke="#111" stroke-width="9" stroke-linecap="round" d="M101 290 Q200 238 299 290" /><ellipse cx="148" cy="152" rx="44" ry="32.2" fill="#111" /><ellipse cx="157" cy="142.2" rx="7.7" ry="9.1" fill="white" opacity="0.9" /><ellipse cx="252" cy="152" rx="44" ry="32.2" fill="#111" /><ellipse cx="243" cy="142.2" rx="7.7" ry="9.1" fill="white" opacity="0.9" /></g><g id="expr-angry" style="display:none" data-replace-mouth="true" data-replace-eyes="true"><path fill="none" stroke="#111" stroke-width="9" stroke-linecap="round" d="M110 290 Q200 264 290 290" /><ellipse cx="148" cy="150" rx="40" ry="23" fill="#111" /><ellipse cx="157" cy="143" rx="5.5" ry="6.5" fill="white" opacity="0.9" /><ellipse cx="252" cy="150" rx="40" ry="23" fill="#111" /><ellipse cx="243" cy="143" rx="5.5" ry="6.5" fill="white" opacity="0.9" /></g><g id="expr-surprised" style="display:none" data-replace-mouth="true" data-replace-eyes="true"><ellipse cx="200" cy="290" rx="27" ry="36" fill="#111" opacity="0.85" /><ellipse cx="148" cy="150" rx="40" ry="69" fill="#111" /><ellipse cx="157" cy="129" rx="11" ry="13" fill="white" opacity="0.9" /><ellipse cx="252" cy="150" rx="40" ry="69" fill="#111" /><ellipse cx="243" cy="129" rx="11" ry="13" fill="white" opacity="0.9" /></g><g id="expr-thinking" style="display:none" data-replace-mouth="true" data-replace-eyes="true"><path fill="none" stroke="#111" stroke-width="9" stroke-linecap="round" d="M195.5 292 Q213.5 284.1 245 290" /><ellipse cx="148" cy="145" rx="40" ry="50.6" fill="#111" /><ellipse cx="157" cy="129.6" rx="11" ry="13" fill="white" opacity="0.9" /><ellipse cx="252" cy="145" rx="40" ry="50.6" fill="#111" /><ellipse cx="243" cy="129.6" rx="11" ry="13" fill="white" opacity="0.9" /></g><g id="expr-confused" style="display:none" data-replace-mouth="true" data-replace-eyes="true"><path fill="none" stroke="#111" stroke-width="9" stroke-linecap="round" d="M137 290 Q174.8 274.4 200 290 Q225.2 305.6 263 290" /><ellipse cx="148" cy="150" rx="40" ry="55.2" fill="#111" /><ellipse cx="157" cy="133.2" rx="11" ry="13" fill="white" opacity="0.9" /><ellipse cx="252" cy="150" rx="36" ry="32.2" fill="#111" /><ellipse cx="243" cy="140.2" rx="7.7" ry="9.1" fill="white" opacity="0.9" /><text x="312" y="100" font-size="36" font-family="sans-serif" font-weight="bold" fill="#666" opacity="0.7" style="animation: wobble 1.2s ease-in-out infinite">?</text></g><g id="expr-excited" style="display:none" data-replace-mouth="true" data-replace-eyes="true"><path fill="#111" stroke="#111" stroke-width="6.8" stroke-linecap="round" d="M65 288 Q200 465.5 335 288 Z" /><ellipse cx="148" cy="150" rx="40" ry="64.4" fill="#111" /><ellipse cx="157" cy="130.4" rx="11" ry="13" fill="white" opacity="0.9" /><ellipse cx="252" cy="150" rx="40" ry="64.4" fill="#111" /><ellipse cx="243" cy="130.4" rx="11" ry="13" fill="white" opacity="0.9" /><path d="M150 110 L153 117 L160 120 L153 123 L150 130 L147 123 L140 120 L147 117 Z" fill="#FFD600" opacity="0.9" /><path d="M250 107 L252.4 112.6 L258 115 L252.4 117.4 L250 123 L247.6 117.4 L242 115 L247.6 112.6 Z" fill="#FFD600" opacity="0.7" /></g><g id="expr-scared" style="display:none" data-replace-mouth="true" data-replace-eyes="true"><path fill="#111" stroke="#111" stroke-width="9" stroke-linecap="round" opacity="0.65" d="M135.2 309.5 Q200 225 264.8 309.5 Q200 342 135.2 309.5 Z" /><ellipse cx="148" cy="150" rx="40" ry="73.6" fill="#111" /><ellipse cx="157" cy="127.6" rx="11" ry="13" fill="white" opacity="0.9" /><ellipse cx="252" cy="150" rx="40" ry="73.6" fill="#111" /><ellipse cx="243" cy="127.6" rx="11" ry="13" fill="white" opacity="0.9" /></g><g id="expr-concerned" style="display:none" data-replace-mouth="true" data-replace-eyes="true"><path fill="none" stroke="#111" stroke-width="9" stroke-linecap="round" d="M119 290 Q200 257.5 281 290" /><ellipse cx="148" cy="150" rx="40" ry="52.9" fill="#111" /><ellipse cx="157" cy="133.9" rx="11" ry="13" fill="white" opacity="0.9" /><ellipse cx="252" cy="150" rx="40" ry="52.9" fill="#111" /><ellipse cx="243" cy="133.9" rx="11" ry="13" fill="white" opacity="0.9" /></g><g id="expr-proud" style="display:none" data-replace-mouth="true" data-replace-eyes="true"><path fill="none" stroke="#111" stroke-width="9" stroke-linecap="round" d="M101 290 Q200 355 299 290" /><ellipse cx="148" cy="150" rx="44" ry="36.8" fill="#111" /><ellipse cx="157" cy="138.8" rx="8.8" ry="10.4" fill="white" opacity="0.9" /><ellipse cx="252" cy="150" rx="44" ry="36.8" fill="#111" /><ellipse cx="243" cy="138.8" rx="8.8" ry="10.4" fill="white" opacity="0.9" /></g><g id="expr-love" style="display:none" data-replace-mouth="true" data-replace-eyes="true"><path fill="none" stroke="#111" stroke-width="9" stroke-linecap="round" d="M128 290 Q200 329 272 290" /><ellipse cx="148" cy="150" rx="44" ry="46" fill="#111" /><path d="M157 139.5 C148.2 134.2 152.6 128.1 157 132.5 C161.4 128.1 165.8 134.2 157 139.5 Z" fill="#E74C3C" opacity="0.9" /><ellipse cx="252" cy="150" rx="44" ry="46" fill="#111" /><path d="M243 139.5 C234.2 134.2 238.6 128.1 243 132.5 C247.4 128.1 251.8 134.2 243 139.5 Z" fill="#E74C3C" opacity="0.9" /><path d="M155 129.2 C155 120.8 141 120.8 141 126.4 C141 133.4 155 139 155 139 C155 139 169 133.4 169 126.4 C169 120.8 155 120.8 155 129.2 Z" fill="#E74C3C" opacity="0.9" /><path d="M245 123.6 C245 116.4 233 116.4 233 121.2 C233 127.2 245 132 245 132 C245 132 257 127.2 257 121.2 C257 116.4 245 116.4 245 123.6 Z" fill="#E74C3C" opacity="0.7" /></g><g id="expr-crying" style="display:none" data-replace-mouth="true" data-replace-eyes="true"><path fill="#111" stroke="#111" stroke-width="9" stroke-linecap="round" opacity="0.65" d="M120.8 307.6 Q200 231.5 279.2 307.6 Q200 336.8 120.8 307.6 Z" /><ellipse cx="148" cy="150" rx="44" ry="23" fill="#111" /><ellipse cx="157" cy="143" rx="5.5" ry="6.5" fill="white" opacity="0.9" /><ellipse cx="252" cy="150" rx="44" ry="23" fill="#111" /><ellipse cx="243" cy="143" rx="5.5" ry="6.5" fill="white" opacity="0.9" /><ellipse cx="116" cy="216" rx="7" ry="20" fill="#5DADE2" opacity="0.5" style="animation: tear-stream 1.5s ease-in-out 0s infinite" /><ellipse cx="284" cy="216" rx="7" ry="20" fill="#5DADE2" opacity="0.5" style="animation: tear-stream 1.5s ease-in-out 0.3s infinite" /></g><g id="expr-sleepy" style="display:none" data-replace-mouth="true" data-replace-eyes="true"><ellipse cx="200" cy="290" rx="13.5" ry="10.8" fill="#111" opacity="0.5" /><path d="M108 150 Q148 136 188 150" fill="none" stroke="#333" stroke-width="4" stroke-linecap="round" /><path d="M212 150 Q252 136 292 150" fill="none" stroke="#333" stroke-width="4" stroke-linecap="round" /><text x="327" y="95" font-size="32" font-family="sans-serif" font-weight="bold" fill="#999" opacity="0.7" style="animation: float-up 1.5s ease-in-out infinite">z</text><text x="346.2" y="66.2" font-size="22.4" font-family="sans-serif" font-weight="bold" fill="#999" opacity="0.7" style="animation: float-up 1.8s ease-in-out infinite">z</text><text x="365.4" y="37.4" font-size="14.4" font-family="sans-serif" font-weight="bold" fill="#999" opacity="0.7" style="animation: float-up 2.1s ease-in-out infinite">z</text></g><g id="expr-winking" style="display:none" data-replace-mouth="true" data-replace-eyes="true"><path fill="#111" stroke="#111" stroke-width="6.8" stroke-linecap="round" d="M83 288 Q200 426.5 317 288 Z" /><path d="M108 150 Q148 136 188 150" fill="none" stroke="#333" stroke-width="4" stroke-linecap="round" /><ellipse cx="252" cy="150" rx="40" ry="46" fill="#111" /><ellipse cx="243" cy="136" rx="11" ry="13" fill="white" opacity="0.9" /></g><g id="expr-laughing" style="display:none" data-replace-mouth="true" data-replace-eyes="true"><path fill="#111" stroke="#111" stroke-width="6.8" stroke-linecap="round" d="M47 288 Q200 387.5 353 288 Z" /><path d="M108 150 Q148 136 188 150" fill="none" stroke="#333" stroke-width="4" stroke-linecap="round" /><path d="M212 150 Q252 136 292 150" fill="none" stroke="#333" stroke-width="4" stroke-linecap="round" /></g><g id="expr-silly" style="display:none" data-replace-mouth="true" data-replace-eyes="true"><path fill="none" stroke="#111" stroke-width="9" stroke-linecap="round" d="M92 290 Q200 322.5 308 290" /><ellipse cx="148" cy="150" rx="42" ry="69" fill="#111" /><ellipse cx="157" cy="129" rx="11.6" ry="13.7" fill="white" opacity="0.9" /><ellipse cx="252" cy="150" rx="34" ry="18.4" fill="#111" /><ellipse cx="243" cy="144.4" rx="4.4" ry="5.2" fill="white" opacity="0.9" /><ellipse cx="200" cy="308" rx="12" ry="9" fill="#E74C6F" /></g><g id="expr-rofl" style="display:none" data-replace-mouth="true" data-replace-eyes="true"><path fill="#111" stroke="#111" stroke-width="6.8" stroke-linecap="round" d="M38 288 Q200 397.2 362 288 Z" /><path d="M108 150 Q148 136 188 150" fill="none" stroke="#333" stroke-width="4" stroke-linecap="round" /><path d="M212 150 Q252 136 292 150" fill="none" stroke="#333" stroke-width="4" stroke-linecap="round" /><ellipse cx="116" cy="216" rx="7" ry="20" fill="#5DADE2" opacity="0.5" style="animation: tear-stream 1.5s ease-in-out 0s infinite" /><ellipse cx="284" cy="216" rx="7" ry="20" fill="#5DADE2" opacity="0.5" style="animation: tear-stream 1.5s ease-in-out 0.3s infinite" /></g><g id="blink" style="display:none">
    
    <rect x="108" y="104" width="80" height="100" rx="4" fill="var(--face-bg, #FF9E1B)" class="lid-fill" />
    <path d="M108 154 Q148 170 188 154" fill="none" stroke="#111" stroke-width="4" stroke-linecap="round" />
    <rect x="212" y="104" width="80" height="100" rx="4" fill="var(--face-bg, #FF9E1B)" class="lid-fill" />
    <path d="M212 154 Q252 170 292 154" fill="none" stroke="#111" stroke-width="4" stroke-linecap="round" />
  </g>
<g id="eyebrows-base"><path d="M112 96 Q148 87 184 96" fill="none" stroke="#111" stroke-width="5.9" stroke-linecap="round" /><path d="M216 96 Q252 87 288 96" fill="none" stroke="#111" stroke-width="5.9" stroke-linecap="round" /></g><g id="expr-listening" style="display:none" /><g id="expr-neutral" style="display:none" /></svg>