<?xml version='1.0' encoding='utf-8'?>
<svg xmlns="http://www.w3.org/2000/svg" viewBox="0 0 400 400" id="atlas-avatar-nick" data-viseme-bank="cartoon">
  
  <defs>
    
    <linearGradient id="n-tear" x1="0" y1="0" x2="0" y2="1">
      <stop offset="0%" stop-color="#87CEFA" stop-opacity="0.85" />
      <stop offset="100%" stop-color="#4DA6FF" stop-opacity="0.6" />
    </linearGradient>
    
    <linearGradient id="n-heart" x1="0" y1="0" x2="0" y2="1">
      <stop offset="0%" stop-color="#FF6B8A" />
      <stop offset="100%" stop-color="#E91E63" />
    </linearGradient>
    
    <radialGradient id="n-sparkle" cx="50%" cy="50%" r="50%">
      <stop offset="0%" stop-color="#FFF176" />
      <stop offset="100%" stop-color="#FFD600" stop-opacity="0" />
    </radialGradient>
    
    <radialGradient id="n-mouth-fill" cx="50%" cy="40%" r="60%">
      <stop offset="0%" stop-color="#1A1A1A" />
      <stop offset="100%" stop-color="#0A0A0A" />
    </radialGradient>
    
    <clipPath id="clip-teeth"><ellipse cx="200" cy="290" rx="48" ry="18" /></clipPath>
    <clipPath id="clip-open"><ellipse cx="200" cy="296" rx="48" ry="32" /></clipPath>
    <clipPath id="clip-fv"><ellipse cx="200" cy="286" rx="42" ry="12" /></clipPath>
  </defs>

  
  <g id="face-base">
    
  </g>

  
  <g id="eyes-base">
    <ellipse cx="148" cy="150" rx="40" ry="46" fill="#111" />
    <ellipse cx="157" cy="136" rx="11" ry="13" fill="white" opacity="0.9" class="pupil-left" />
    <circle cx="152" cy="131" r="5" fill="white" opacity="0.7" class="glint" />
    <ellipse cx="252" cy="150" rx="40" ry="46" fill="#111" />
    <ellipse cx="243" cy="136" rx="11" ry="13" fill="white" opacity="0.9" class="pupil-right" />
    <circle cx="248" cy="131" r="5" fill="white" opacity="0.7" class="glint" />
  </g>

  

  
  <g id="mouth-IDLE" style="display:none">
    <path d="M110 290 Q200 355 290 290" fill="none" stroke="#111" stroke-width="9" stroke-linecap="round" />
  </g>

  
  <g id="mouth-IDLE-TALK" style="display:none">
    <path d="M148 294 Q200 330 252 294" fill="none" stroke="#111" stroke-width="8" stroke-linecap="round" />
  </g>

  
  <g id="mouth-CLOSED" style="display:none">
    <path d="M130 300 Q200 310 270 300" fill="#111" stroke="#111" stroke-width="7" stroke-linecap="round" />
  </g>

  
  <g id="mouth-OPEN" style="display:none">
    <ellipse cx="200" cy="304" rx="56" ry="38" fill="url(#n-mouth-fill)" />
    <rect x="152" y="274" width="96" height="12" rx="5" fill="white" clip-path="url(#clip-open)" />
    <ellipse cx="200" cy="324" rx="26" ry="14" fill="#C0392B" opacity="0.45" />
  </g>

  
  <g id="mouth-ROUND" style="display:none">
    <ellipse cx="200" cy="300" rx="30" ry="32" fill="url(#n-mouth-fill)" />
  </g>

  
  <g id="mouth-TEETH" style="display:none">
    <ellipse cx="200" cy="298" rx="54" ry="24" fill="url(#n-mouth-fill)" />
    <rect x="156" y="288" width="88" height="12" rx="5" fill="white" clip-path="url(#clip-teeth)" />
  </g>

  
  <g id="mouth-FV" style="display:none">
    <path d="M140 292 Q200 284 260 292" fill="none" stroke="#111" stroke-width="8" stroke-linecap="round" />
    <rect x="168" y="294" width="64" height="7" rx="3" fill="white" opacity="0.85" clip-path="url(#clip-fv)" />
    <path d="M154 300 Q200 316 246 300" fill="#111" opacity="0.35" />
  </g>

  
  <g id="mouth-PP" style="display:none"><use href="#mouth-CLOSED" /></g>
  <g id="mouth-FF" style="display:none"><use href="#mouth-FV" /></g>
  <g id="mouth-TH" style="display:none"><use href="#mouth-TEETH" /></g>
  <g id="mouth-DD" style="display:none"><use href="#mouth-CLOSED" /></g>
  <g id="mouth-KK" style="display:none"><use href="#mouth-OPEN" /></g>
  <g id="mouth-SS" style="display:none"><use href="#mouth-TEETH" /></g>
  <g id="mouth-SH" style="display:none"><use href="#mouth-ROUND" /></g>
  <g id="mouth-RR" style="display:none"><use href="#mouth-ROUND" /></g>
  <g id="mouth-NN" style="display:none"><use href="#mouth-CLOSED" /></g>
  <g id="mouth-IH" style="display:none"><use href="#mouth-TEETH" /></g>
  <g id="mouth-EH" style="display:none"><use href="#mouth-TEETH" /></g>
  <g id="mouth-AA" style="display:none"><use href="#mouth-OPEN" /></g>
  <g id="mouth-OH" style="display:none"><use href="#mouth-ROUND" /></g>
  <g id="mouth-OU" style="display:none"><use href="#mouth-ROUND" /></g>

  

  
  <g id="mouth-anchor" data-cx="200" data-cy="304" style="display:none" />
  <g id="eyes-anchor" data-cx="200" data-cy="150" style="display:none" />
  <g id="eyebrows-anchor" data-cx="200" data-cy="118" style="display:none" />

  <g id="expr-happy" style="display:none" data-replace-mouth="true" data-replace-eyes="true"><path fill="none" stroke="#111" stroke-width="9" stroke-linecap="round" d="M110 290 Q200 329 290 290" /><ellipse cx="148" cy="150" rx="40" ry="23" fill="#111" /><ellipse cx="252" cy="150" rx="40" ry="23" fill="#111" /><path d="M112 93 Q148 71.4 184 93" fill="none" stroke="#111" stroke-width="5.9" stroke-linecap="round" /><path d="M216 93 Q252 71.4 288 93" fill="none" stroke="#111" stroke-width="5.9" stroke-linecap="round" /></g><g id="expr-sad" style="display:none" data-replace-mouth="true" data-replace-eyes="true"><path fill="none" stroke="#111" stroke-width="9" stroke-linecap="round" d="M128 290 Q200 273.8 272 290" /><ellipse cx="148" cy="152" rx="40" ry="25.3" fill="#111" /><ellipse cx="252" cy="152" rx="40" ry="25.3" fill="#111" /><path d="M112 101 Q148 90 184 98" fill="none" stroke="#111" stroke-width="5.9" stroke-linecap="round" /><path d="M216 98 Q252 90 288 101" fill="none" stroke="#111" stroke-width="5.9" stroke-linecap="round" /></g><g id="expr-angry" style="display:none" data-replace-mouth="true" data-replace-eyes="true"><path fill="none" stroke="#111" stroke-width="9" stroke-linecap="round" d="M146 290 Q200 277 254 290" /><ellipse cx="148" cy="150" rx="38" ry="16.1" fill="#111" /><ellipse cx="252" cy="150" rx="38" ry="16.1" fill="#111" /><path d="M112 94 Q148 88 184 100" fill="none" stroke="#111" stroke-width="6.4" stroke-linecap="round" /><path d="M216 100 Q252 88 288 94" fill="none" stroke="#111" stroke-width="6.4" stroke-linecap="round" /></g><g id="expr-surprised" style="display:none" data-replace-mouth="true" data-replace-eyes="true"><ellipse cx="200" cy="290" rx="18" ry="22.5" fill="#111" opacity="0.85" /><ellipse cx="148" cy="150" rx="40" ry="59.8" fill="#111" /><ellipse cx="252" cy="150" rx="40" ry="59.8" fill="#111" /><path d="M112 86 Q148 68 184 86" fill="none" stroke="#111" stroke-width="5.9" stroke-linecap="round" /><path d="M216 86 Q252 68 288 86" fill="none" stroke="#111" stroke-width="5.9" stroke-linecap="round" /></g><g id="expr-thinking" style="display:none" data-replace-mouth="true" data-replace-eyes="true"><path fill="none" stroke="#111" stroke-width="9" stroke-linecap="round" d="M191 292 Q209 284.1 240.5 290" /><ellipse cx="148" cy="147" rx="40" ry="39.1" fill="#111" /><ellipse cx="252" cy="147" rx="40" ry="39.1" fill="#111" /><path d="M112 98 Q148 87.2 184 98" fill="none" stroke="#111" stroke-width="5.9" stroke-linecap="round" /><path d="M216 98 Q252 78.6 288 96" fill="none" stroke="#111" stroke-width="5.9" stroke-linecap="round" /></g><g id="expr-confused" style="display:none" data-replace-mouth="true" data-replace-eyes="true"><path fill="none" stroke="#111" stroke-width="9" stroke-linecap="round" d="M137 290 Q174.8 278.3 200 290 Q225.2 301.7 263 290" /><ellipse cx="148" cy="150" rx="40" ry="41.4" fill="#111" /><ellipse cx="252" cy="150" rx="36" ry="32.2" fill="#111" /><path d="M112 98 Q148 87.2 184 98" fill="none" stroke="#111" stroke-width="5.9" stroke-linecap="round" /><path d="M216 98 Q252 78.6 288 96" fill="none" stroke="#111" stroke-width="5.9" stroke-linecap="round" /></g><g id="expr-excited" style="display:none" data-replace-mouth="true" data-replace-eyes="true"><path fill="#fff" stroke="#111" stroke-width="6.8" stroke-linecap="round" d="M92 288 Q200 338.8 308 288 Z" /><ellipse cx="148" cy="150" rx="40" ry="55.2" fill="#111" /><ellipse cx="252" cy="150" rx="40" ry="55.2" fill="#111" /><path d="M112 88 Q148 70 184 88" fill="none" stroke="#111" stroke-width="5.9" stroke-linecap="round" /><path d="M216 88 Q252 70 288 88" fill="none" stroke="#111" stroke-width="5.9" stroke-linecap="round" /></g><g id="expr-scared" style="display:none" data-replace-mouth="true" data-replace-eyes="true"><path fill="#111" stroke="#111" stroke-width="9" stroke-linecap="round" opacity="0.65" d="M149.6 297.8 Q200 264 250.4 297.8 Q200 310.8 149.6 297.8 Z" /><ellipse cx="148" cy="150" rx="40" ry="64.4" fill="#111" /><ellipse cx="252" cy="150" rx="40" ry="64.4" fill="#111" /><path d="M112 83 Q148 65 184 83" fill="none" stroke="#111" stroke-width="5.9" stroke-linecap="round" /><path d="M216 83 Q252 65 288 83" fill="none" stroke="#111" stroke-width="5.9" stroke-linecap="round" /></g><g id="expr-concerned" style="display:none" data-replace-mouth="true" data-replace-eyes="true"><path fill="none" stroke="#111" stroke-width="9" stroke-linecap="round" d="M137 290 Q200 280.2 263 290" /><ellipse cx="148" cy="150" rx="40" ry="48.3" fill="#111" /><ellipse cx="252" cy="150" rx="40" ry="48.3" fill="#111" /><path d="M112 98 Q148 94 184 100" fill="none" stroke="#111" stroke-width="5.9" stroke-linecap="round" /><path d="M216 100 Q252 94 288 98" fill="none" stroke="#111" stroke-width="5.9" stroke-linecap="round" /></g><g id="expr-proud" style="display:none" data-replace-mouth="true" data-replace-eyes="true"><path fill="none" stroke="#111" stroke-width="9" stroke-linecap="round" d="M119 292 Q200 290 281 280.2" /><ellipse cx="148" cy="150" rx="40" ry="32.2" fill="#111" /><ellipse cx="252" cy="150" rx="40" ry="32.2" fill="#111" /><path d="M112 98 Q148 90.8 184 98" fill="none" stroke="#111" stroke-width="5.9" stroke-linecap="round" /><path d="M216 98 Q252 78.2 288 96" fill="none" stroke="#111" stroke-width="5.9" stroke-linecap="round" /></g><g id="expr-love" style="display:none" data-replace-mouth="true" data-replace-eyes="true"><ellipse cx="200" cy="290" rx="11.7" ry="14.4" fill="#e74c6f" opacity="0.8" /><ellipse cx="148" cy="151" rx="40" ry="27.6" fill="#111" /><ellipse cx="252" cy="151" rx="40" ry="27.6" fill="#111" /><path d="M112 98 Q148 89 184 98" fill="none" stroke="#111" stroke-width="5.9" stroke-linecap="round" /><path d="M216 98 Q252 89 288 98" fill="none" stroke="#111" stroke-width="5.9" stroke-linecap="round" /></g><g id="expr-crying" style="display:none" data-replace-mouth="true" data-replace-eyes="true"><path fill="#111" stroke="#111" stroke-width="9" stroke-linecap="round" opacity="0.65" d="M142.4 298.8 Q200 260.8 257.6 298.8 Q200 313.4 142.4 298.8 Z" /><ellipse cx="148" cy="150" rx="40" ry="13.8" fill="#111" /><ellipse cx="252" cy="150" rx="40" ry="13.8" fill="#111" /><path d="M112 102 Q148 92 184 98" fill="none" stroke="#111" stroke-width="5.9" stroke-linecap="round" /><path d="M216 98 Q252 92 288 102" fill="none" stroke="#111" stroke-width="5.9" stroke-linecap="round" /></g><g id="expr-sleepy" style="display:none" data-replace-mouth="true" data-replace-eyes="true"><ellipse cx="200" cy="290" rx="11.7" ry="9" fill="#111" opacity="0.5" /><ellipse cx="148" cy="152" rx="40" ry="6.9" fill="#111" /><ellipse cx="252" cy="152" rx="40" ry="6.9" fill="#111" /><path d="M112 100 Q148 95.7 184 100" fill="none" stroke="#111" stroke-width="5.9" stroke-linecap="round" /><path d="M216 100 Q252 95.7 288 100" fill="none" stroke="#111" stroke-width="5.9" stroke-linecap="round" /></g><g id="expr-winking" style="display:none" data-replace-mouth="true" data-replace-eyes="true"><path fill="none" stroke="#111" stroke-width="9" stroke-linecap="round" d="M110 290 Q200 322.5 290 290" /><path d="M108 150 Q148 136 188 150" fill="none" stroke="#111" stroke-width="4" stroke-linecap="round" /><ellipse cx="252" cy="150" rx="40" ry="46" fill="#111" /><path d="M112 98 Q148 87.2 184 98" fill="none" stroke="#111" stroke-width="5.9" stroke-linecap="round" /><path d="M216 98 Q252 78.6 288 96" fill="none" stroke="#111" stroke-width="5.9" stroke-linecap="round" /></g><g id="expr-laughing" style="display:none" data-replace-mouth="true" data-replace-eyes="true"><path fill="#fff" stroke="#111" stroke-width="6.8" stroke-linecap="round" d="M83 288 Q200 348.5 317 288 Z" /><path d="M108 150 Q148 136 188 150" fill="none" stroke="#111" stroke-width="4" stroke-linecap="round" /><path d="M212 150 Q252 136 292 150" fill="none" stroke="#111" stroke-width="4" stroke-linecap="round" /><path d="M112 92 Q148 66.1 184 92" fill="none" stroke="#111" stroke-width="5.9" stroke-linecap="round" /><path d="M216 92 Q252 66.1 288 92" fill="none" stroke="#111" stroke-width="5.9" stroke-linecap="round" /></g><g id="expr-silly" style="display:none" data-replace-mouth="true" data-replace-eyes="true"><path fill="none" stroke="#111" stroke-width="9" stroke-linecap="round" d="M110 290 Q164 276.4 200 290 Q236 303.6 290 290" /><ellipse cx="148" cy="150" rx="42" ry="55.2" fill="#111" /><ellipse cx="252" cy="150" rx="34" ry="29.9" fill="#111" /><path d="M112 98 Q130 89 148 98 Q166 102.5 184 96" fill="none" stroke="#111" stroke-width="5.9" stroke-linecap="round" /><path d="M216 99 Q234 92.6 252 98 Q270 100.7 288 98" fill="none" stroke="#111" stroke-width="5.9" stroke-linecap="round" /></g><g id="blink" style="display:none">
    
    <rect x="108" y="104" width="80" height="100" rx="4" fill="var(--face-bg, #FF9E1B)" class="lid-fill" />
    <path d="M108 154 Q148 170 188 154" fill="none" stroke="#111" stroke-width="4" stroke-linecap="round" />
    <rect x="212" y="104" width="80" height="100" rx="4" fill="var(--face-bg, #FF9E1B)" class="lid-fill" />
    <path d="M212 154 Q252 170 292 154" fill="none" stroke="#111" stroke-width="4" stroke-linecap="round" />
  </g>
<g id="expr-listening" style="display:none" /><g id="expr-neutral" style="display:none" /></svg>